<svg xmlns="http://www.w3.org/2000/svg" xmlns:xlink="http://www.w3.org/1999/xlink" xmlns:lucid="lucid" width="1213.49" height="1016.5"><g transform="translate(-390 -1882)" lucid:page-tab-id="0_0"><path d="M-1696-1296h5152v5248h-5152z" fill="#fff"/><path d="M460 2106a6 6 0 0 1 6-6h488a6 6 0 0 1 6 6v88a6 6 0 0 1-6 6H466a6 6 0 0 1-6-6z" stroke="#3a414a" fill="#ffd9d9"/><use xlink:href="#a" transform="matrix(1,0,0,1,465.0000000000002,2105) translate(16.518518518518533 37.46527777777778)"/><use xlink:href="#b" transform="matrix(1,0,0,1,465.0000000000002,2105) translate(62.07407407407408 37.46527777777778)"/><use xlink:href="#c" transform="matrix(1,0,0,1,465.0000000000002,2105) translate(86.76543209876544 37.46527777777778)"/><use xlink:href="#d" transform="matrix(1,0,0,1,465.0000000000002,2105) translate(117.62962962962965 37.46527777777778)"/><use xlink:href="#e" transform="matrix(1,0,0,1,465.0000000000002,2105) translate(207.62962962962968 37.46527777777778)"/><use xlink:href="#f" transform="matrix(1,0,0,1,465.0000000000002,2105) translate(295.0987654320988 37.46527777777778)"/><use xlink:href="#g" transform="matrix(1,0,0,1,465.0000000000002,2105) translate(358.67901234567904 37.46527777777778)"/><use xlink:href="#h" transform="matrix(1,0,0,1,465.0000000000002,2105) translate(430.1604938271605 37.46527777777778)"/><use xlink:href="#e" transform="matrix(1,0,0,1,465.0000000000002,2105) translate(53.15432098765436 64.13194444444446)"/><use xlink:href="#i" transform="matrix(1,0,0,1,465.0000000000002,2105) translate(140.6234567901235 64.13194444444446)"/><use xlink:href="#j" transform="matrix(1,0,0,1,465.0000000000002,2105) translate(265.1296296296297 64.13194444444446)"/><use xlink:href="#k" transform="matrix(1,0,0,1,465.0000000000002,2105) translate(345.3148148148148 64.13194444444446)"/><use xlink:href="#l" transform="matrix(1,0,0,1,465.0000000000002,2105) translate(374.94444444444446 64.13194444444446)"/><path d="M1012.7 1904.28a14.63 14.63 0 0 1 11.1 0l157.15 64.44a2.46 2.46 0 0 1 0 4.56l-157.15 64.44a14.63 14.63 0 0 1-11.1 0l-157.15-64.44a2.46 2.46 0 0 1 0-4.56z" stroke="#3a414a" fill="#fff"/><use xlink:href="#m" transform="matrix(1,0,0,1,855,1907) translate(97.28277777777781 51.1111111111111)"/><use xlink:href="#n" transform="matrix(1,0,0,1,855,1907) translate(151.8506790123457 51.1111111111111)"/><use xlink:href="#o" transform="matrix(1,0,0,1,855,1907) translate(116.27969135802472 85.77777777777774)"/><path d="M853.02 1971H716a6 6 0 0 0-6 6v106.15" stroke="#3a414a" fill="none"/><path d="M853.52 1971l.06.5H853v-1h.58z" stroke="#3a414a" stroke-width=".05" fill="#3a414a"/><path d="M710 2097.92l-4.64-14.27h9.28z" stroke="#3a414a" fill="#3a414a"/><use xlink:href="#p" transform="matrix(1,0,0,1,826.7761622947623,1945.6666666666665) translate(0 14.222222222222223)"/><path d="M1315.62 2068.93l1 .08 1 .24.93.4.87.53.78.66.66.78.53.88.38.94.24 1 .08 8.73h-1l-.08-8.6-.2-.82-.32-.8-.45-.73-.56-.66-.67-.56-.74-.45-.8-.33-.84-.2-.88-.07-130.35-.04v-1zm-296.87-5.52l.07.9.2.83.33.8.45.73.56.66.66.56.73.45.8.33.82.2 131.25.03v1l-131.37-.05-1-.24-.95-.38-.87-.53-.78-.68-.66-.77-.54-.87-.4-.94-.23-1-.08-1v-23.62h1z" stroke="#3a414a" stroke-width=".05" fill="#3a414a"/><path d="M1018.25 2039.32l.5-.02v.53h-1v-.53z" fill="#3a414a"/><path d="M1018.25 2039.3l.52-.03v.6h-1.04v-.6zm-.48.5h.96v-.48l-.48.02-.48-.02z" stroke="#3a414a" stroke-width=".05" fill="#3a414a"/><path d="M1321.6 2097.92l-4.64-14.27h9.27z" fill="#3a414a"/><path d="M1321.6 2099.54l-5.33-16.4h10.65zm-3.95-15.4l3.95 12.16 3.95-12.15z" stroke="#3a414a" stroke-width=".05" fill="#3a414a"/><use xlink:href="#q" transform="matrix(1,0,0,1,1154.6153719854974,2058.760711008473) translate(0 14.222222222222223)"/><path d="M460 2226a6 6 0 0 1 6-6h488a6 6 0 0 1 6 6v88a6 6 0 0 1-6 6H466a6 6 0 0 1-6-6z" stroke="#3a414a" fill="#fff"/><use xlink:href="#r" transform="matrix(1,0,0,1,465,2225) translate(14.018518518518533 23.40277777777778)"/><use xlink:href="#f" transform="matrix(1,0,0,1,465,2225) translate(101.48765432098767 23.40277777777778)"/><use xlink:href="#g" transform="matrix(1,0,0,1,465,2225) translate(165.06790123456793 23.40277777777778)"/><use xlink:href="#s" transform="matrix(1,0,0,1,465,2225) translate(236.5493827160494 23.40277777777778)"/><use xlink:href="#t" transform="matrix(1,0,0,1,465,2225) translate(305.5617283950617 23.40277777777778)"/><use xlink:href="#u" transform="matrix(1,0,0,1,465,2225) translate(348.7716049382716 23.40277777777778)"/><use xlink:href="#v" transform="matrix(1,0,0,1,465,2225) translate(428.8333333333333 23.40277777777778)"/><use xlink:href="#w" transform="matrix(1,0,0,1,465,2225) translate(26.549382716049394 50.06944444444445)"/><use xlink:href="#b" transform="matrix(1,0,0,1,465,2225) translate(106.73456790123457 50.06944444444445)"/><use xlink:href="#e" transform="matrix(1,0,0,1,465,2225) translate(131.42592592592592 50.06944444444445)"/><use xlink:href="#x" transform="matrix(1,0,0,1,465,2225) translate(218.89506172839506 50.06944444444445)"/><use xlink:href="#y" transform="matrix(1,0,0,1,465,2225) translate(264.5740740740741 50.06944444444445)"/><use xlink:href="#z" transform="matrix(1,0,0,1,465,2225) translate(348.46296296296293 50.06944444444445)"/><use xlink:href="#A" transform="matrix(1,0,0,1,465,2225) translate(391.67283950617286 50.06944444444445)"/><use xlink:href="#B" transform="matrix(1,0,0,1,465,2225) translate(452.10493827160496 50.06944444444445)"/><use xlink:href="#C" transform="matrix(1,0,0,1,465,2225) translate(144.66666666666666 76.73611111111111)"/><use xlink:href="#f" transform="matrix(1,0,0,1,465,2225) translate(208.74074074074073 76.73611111111111)"/><use xlink:href="#D" transform="matrix(1,0,0,1,465,2225) translate(272.320987654321 76.73611111111111)"/><path d="M1071.6 2106a6 6 0 0 1 6-6h488a6 6 0 0 1 6 6v88a6 6 0 0 1-6 6h-488a6 6 0 0 1-6-6z" stroke="#3a414a" fill="#fff"/><use xlink:href="#E" transform="matrix(1,0,0,1,1076.5980279216112,2105) translate(41.17901234567901 37.46527777777778)"/><use xlink:href="#e" transform="matrix(1,0,0,1,1076.5980279216112,2105) translate(127.35185185185185 37.46527777777778)"/><use xlink:href="#x" transform="matrix(1,0,0,1,1076.5980279216112,2105) translate(214.820987654321 37.46527777777778)"/><use xlink:href="#F" transform="matrix(1,0,0,1,1076.5980279216112,2105) translate(260.5 37.46527777777778)"/><use xlink:href="#G" transform="matrix(1,0,0,1,1076.5980279216112,2105) translate(277.72222222222223 37.46527777777778)"/><use xlink:href="#H" transform="matrix(1,0,0,1,1076.5980279216112,2105) translate(314.75925925925924 37.46527777777778)"/><use xlink:href="#I" transform="matrix(1,0,0,1,1076.5980279216112,2105) translate(365.2530864197531 37.46527777777778)"/><use xlink:href="#J" transform="matrix(1,0,0,1,1076.5980279216112,2105) translate(25.901234567901213 64.13194444444446)"/><use xlink:href="#K" transform="matrix(1,0,0,1,1076.5980279216112,2105) translate(83.9259259259259 64.13194444444446)"/><use xlink:href="#L" transform="matrix(1,0,0,1,1076.5980279216112,2105) translate(138.24691358024688 64.13194444444446)"/><use xlink:href="#b" transform="matrix(1,0,0,1,1076.5980279216112,2105) translate(229.5432098765432 64.13194444444446)"/><use xlink:href="#e" transform="matrix(1,0,0,1,1076.5980279216112,2105) translate(254.23456790123456 64.13194444444446)"/><use xlink:href="#x" transform="matrix(1,0,0,1,1076.5980279216112,2105) translate(341.7037037037037 64.13194444444446)"/><use xlink:href="#M" transform="matrix(1,0,0,1,1076.5980279216112,2105) translate(387.38271604938274 64.13194444444446)"/><path d="M460 2346a6 6 0 0 1 6-6h488a6 6 0 0 1 6 6v88a6 6 0 0 1-6 6H466a6 6 0 0 1-6-6z" stroke="#3a414a" fill="#fff"/><g><use xlink:href="#N" transform="matrix(1,0,0,1,465,2345) translate(22.475308641975346 37.46527777777778)"/><use xlink:href="#O" transform="matrix(1,0,0,1,465,2345) translate(111.3024691358025 37.46527777777778)"/><use xlink:href="#b" transform="matrix(1,0,0,1,465,2345) translate(180.37654320987656 37.46527777777778)"/><use xlink:href="#P" transform="matrix(1,0,0,1,465,2345) translate(205.06790123456793 37.46527777777778)"/><use xlink:href="#Q" transform="matrix(1,0,0,1,465,2345) translate(261.7962962962963 37.46527777777778)"/><use xlink:href="#R" transform="matrix(1,0,0,1,465,2345) translate(356.7962962962963 37.46527777777778)"/><use xlink:href="#S" transform="matrix(1,0,0,1,465,2345) translate(388.8333333333333 37.46527777777778)"/><use xlink:href="#T" transform="matrix(1,0,0,1,465,2345) translate(169.60493827160494 64.13194444444446)"/><use xlink:href="#U" transform="matrix(1,0,0,1,465,2345) translate(222.69135802469137 64.13194444444446)"/></g><path d="M710 2200.96v2.2" stroke="#3a414a" fill="none"/><path d="M710.5 2200.98h-1v-.52h1z" stroke="#3a414a" stroke-width=".05" fill="#3a414a"/><path d="M710 2217.92l-4.64-14.27h9.28z" stroke="#3a414a" fill="#3a414a"/><path d="M710 2320.96v2.2" stroke="#3a414a" fill="none"/><path d="M710.5 2320.98h-1v-.52h1z" stroke="#3a414a" stroke-width=".05" fill="#3a414a"/><path d="M710 2337.92l-4.64-14.27h9.28z" stroke="#3a414a" fill="#3a414a"/><path d="M1069.14 2226a6 6 0 0 1 6-6h488a6 6 0 0 1 6 6v88a6 6 0 0 1-6 6h-488a6 6 0 0 1-6-6z" stroke="#3a414a" fill="#fff"/><g><use xlink:href="#N" transform="matrix(1,0,0,1,1074.1428803628023,2225) translate(22.475308641975346 37.46527777777778)"/><use xlink:href="#O" transform="matrix(1,0,0,1,1074.1428803628023,2225) translate(111.3024691358025 37.46527777777778)"/><use xlink:href="#b" transform="matrix(1,0,0,1,1074.1428803628023,2225) translate(180.37654320987656 37.46527777777778)"/><use xlink:href="#P" transform="matrix(1,0,0,1,1074.1428803628023,2225) translate(205.06790123456793 37.46527777777778)"/><use xlink:href="#Q" transform="matrix(1,0,0,1,1074.1428803628023,2225) translate(261.7962962962963 37.46527777777778)"/><use xlink:href="#R" transform="matrix(1,0,0,1,1074.1428803628023,2225) translate(356.7962962962963 37.46527777777778)"/><use xlink:href="#S" transform="matrix(1,0,0,1,1074.1428803628023,2225) translate(388.8333333333333 37.46527777777778)"/><use xlink:href="#T" transform="matrix(1,0,0,1,1074.1428803628023,2225) translate(169.60493827160494 64.13194444444446)"/><use xlink:href="#U" transform="matrix(1,0,0,1,1074.1428803628023,2225) translate(222.69135802469137 64.13194444444446)"/></g><path d="M1321.6 2200.96v2.2" stroke="#3a414a" fill="none"/><path d="M1322.1 2200.98h-1v-.52h1z" stroke="#3a414a" stroke-width=".05" fill="#3a414a"/><path d="M1321.6 2217.92l-4.64-14.27h9.27z" stroke="#3a414a" fill="#3a414a"/><a xlink:href="https://github.com/distribution/distribution/blob/4363fb1ef4676df2b9d99e3630e1b568141597c4/registry/registry.go#L134-L138" target="_blank"><path d="M1020 2406a6 6 0 0 1 6-6h384.77a6 6 0 0 1 6 6v239a6 6 0 0 1-6 6H1026a6 6 0 0 1-6-6z" stroke="#3a414a" fill="#fff"/><path d="M1020 2442.67h396.77M1020 2560.17h396.77" stroke="#3a414a" fill="none"/><use xlink:href="#V" transform="matrix(1,0,0,1,1028,2408) translate(149.8518518518519 17.944444444444443)"/><use xlink:href="#W" transform="matrix(1,0,0,1,1032,2450.6666666666665) translate(0 28.777777777777793)"/><use xlink:href="#X" transform="matrix(1,0,0,1,1032,2450.6666666666665) translate(6.172839506172834 28.777777777777793)"/><use xlink:href="#Y" transform="matrix(1,0,0,1,1032,2450.6666666666665) translate(19.69135802469134 28.777777777777793)"/><use xlink:href="#Z" transform="matrix(1,0,0,1,1032,2450.6666666666665) translate(91.23456790123448 28.777777777777793)"/><use xlink:href="#W" transform="matrix(1,0,0,1,1032,2450.6666666666665) translate(0 55.444444444444436)"/><use xlink:href="#X" transform="matrix(1,0,0,1,1032,2450.6666666666665) translate(6.172839506172834 55.444444444444436)"/><use xlink:href="#aa" transform="matrix(1,0,0,1,1032,2450.6666666666665) translate(19.69135802469134 55.444444444444436)"/><use xlink:href="#ab" transform="matrix(1,0,0,1,1032,2450.6666666666665) translate(69.07407407407402 55.444444444444436)"/><use xlink:href="#W" transform="matrix(1,0,0,1,1032,2450.6666666666665) translate(0 82.11111111111109)"/><use xlink:href="#X" transform="matrix(1,0,0,1,1032,2450.6666666666665) translate(6.172839506172834 82.11111111111109)"/><use xlink:href="#ac" transform="matrix(1,0,0,1,1032,2450.6666666666665) translate(19.69135802469134 82.11111111111109)"/><use xlink:href="#ad" transform="matrix(1,0,0,1,1032,2450.6666666666665) translate(93.64197530864189 82.11111111111109)"/><g><use xlink:href="#ae" transform="matrix(1,0,0,1,1032,2568.1666666666665) translate(0 28.611111111111114)"/><use xlink:href="#af" transform="matrix(1,0,0,1,1032,2568.1666666666665) translate(19.135802469135786 28.611111111111114)"/><use xlink:href="#ag" transform="matrix(1,0,0,1,1032,2568.1666666666665) translate(196.66666666666652 28.611111111111114)"/><use xlink:href="#ah" transform="matrix(1,0,0,1,1032,2568.1666666666665) translate(0 55.277777777777764)"/></g><path class="lucid-link lucid-hotspot lucid-overlay-hotspot" d="M1020 2406a6 6 0 0 1 6-6h384.77a6 6 0 0 1 6 6v239a6 6 0 0 1-6 6H1026a6 6 0 0 1-6-6zM1020 2442.67h396.77M1020 2560.17h396.77" fill="none"/></a><a xlink:href="https://github.com/distribution/distribution/blob/3e4f8a0ab1476a9516d02d76fbf869480541657f/registry/handlers/app.go#L58-L91" target="_blank"><path d="M918.15 2686a6 6 0 0 1 6-6h550.74a6 6 0 0 1 6 6v186a6 6 0 0 1-6 6H924.14a6 6 0 0 1-6-6z" stroke="#3a414a" fill="#fff"/><path d="M918.15 2722.67h562.74m-562.75 90.83h562.74" stroke="#3a414a" fill="none"/><use xlink:href="#ai" transform="matrix(1,0,0,1,926.1509448789345,2688) translate(253.74691358024694 17.944444444444443)"/><use xlink:href="#ae" transform="matrix(1,0,0,1,930.1509448789345,2730.6666666666665) translate(0 28.611111111111114)"/><use xlink:href="#aj" transform="matrix(1,0,0,1,930.1509448789345,2730.6666666666665) translate(19.135802469135786 28.611111111111114)"/><use xlink:href="#ak" transform="matrix(1,0,0,1,930.1509448789345,2730.6666666666665) translate(95.55555555555547 28.611111111111114)"/><use xlink:href="#ah" transform="matrix(1,0,0,1,930.1509448789345,2730.6666666666665) translate(0 55.277777777777764)"/><g><use xlink:href="#ae" transform="matrix(1,0,0,1,930.1509448789345,2821.5) translate(0 28.944444444444443)"/><use xlink:href="#al" transform="matrix(1,0,0,1,930.1509448789345,2821.5) translate(19.135802469135786 28.944444444444443)"/><use xlink:href="#am" transform="matrix(1,0,0,1,930.1509448789345,2821.5) translate(161.97530864197518 28.944444444444443)"/><use xlink:href="#an" transform="matrix(1,0,0,1,930.1509448789345,2821.5) translate(382.16049382716017 28.944444444444443)"/></g><path class="lucid-link lucid-hotspot lucid-overlay-hotspot" d="M918.15 2686a6 6 0 0 1 6-6h550.74a6 6 0 0 1 6 6v186a6 6 0 0 1-6 6H924.14a6 6 0 0 1-6-6zM918.15 2722.67h562.74m-562.75 90.83h562.74" fill="none"/></a><path d="M652.07 2747.96V2840a6 6 0 0 0 6 6h243.26" stroke="#3a414a" fill="none"/><path d="M652.57 2747.98h-1v-.52h1z" stroke="#3a414a" stroke-width=".05" fill="#3a414a"/><path d="M916.1 2846l-14.27 4.64v-9.27z" stroke="#3a414a" fill="#3a414a"/><g><use xlink:href="#ao" transform="matrix(1,0,0,1,719.101662972613,2820.673604023762) translate(0 14.222222222222223)"/><use xlink:href="#ap" transform="matrix(1,0,0,1,719.101662972613,2820.673604023762) translate(47.35802469135803 14.222222222222223)"/></g><path d="M458.04 2150H416a6 6 0 0 0-6 6v525a6 6 0 0 0 6 6h32.92" stroke="#ff8f8f" stroke-width="3" fill="none"/><path d="M459.54 2151.5H458v-3h1.54z" stroke="#ff8f8f" stroke-width=".05" fill="#ff8f8f"/><path d="M464.68 2687l-14.26 4.64v-9.28z" stroke="#ff8f8f" stroke-width="3" fill="#ff8f8f"/><g><use xlink:href="#aq" transform="matrix(1,0,0,1,418,2515.649630693998) translate(0 14.222222222222223)"/><use xlink:href="#ar" transform="matrix(1,0,0,1,418,2515.649630693998) translate(74.9135802469136 14.222222222222223)"/><use xlink:href="#as" transform="matrix(1,0,0,1,418,2515.649630693998) translate(125.7777777777778 14.222222222222223)"/></g><path d="M1069.63 2150h-32.5a6 6 0 0 0-6 6v208a6 6 0 0 0 6 6h540.36a6 6 0 0 1 6 6v461a6 6 0 0 1-6 6H1502" stroke="#54c45e" stroke-width="3" fill="none"/><path d="M1071.14 2151.5h-1.54v-3h1.53z" stroke="#54c45e" stroke-width=".05" fill="#54c45e"/><path d="M1486.24 2843l14.26-4.63v9.27z" stroke="#54c45e" stroke-width="3" fill="#54c45e"/><g><use xlink:href="#at" transform="matrix(1,0,0,1,1158.463075936136,2344.6666666666665) translate(0 14.222222222222223)"/><use xlink:href="#au" transform="matrix(1,0,0,1,1158.463075936136,2344.6666666666665) translate(52.296296296296305 14.222222222222223)"/><use xlink:href="#av" transform="matrix(1,0,0,1,1158.463075936136,2344.6666666666665) translate(127.2098765432099 14.222222222222223)"/></g><a xlink:href="https://github.com/distribution/distribution/blob/3e4f8a0ab1476a9516d02d76fbf869480541657f/registry/registry.go#L303-L305" target="_blank"><path d="M470 2633a6 6 0 0 1 6-6h352.14a6 6 0 0 1 6 6v108a6 6 0 0 1-6 6H476a6 6 0 0 1-6-6z" stroke="#3a414a" fill="#fff"/><use xlink:href="#aw" transform="matrix(1,0,0,1,470.00000000000017,2627) translate(5.01 40.65)"/><use xlink:href="#ax" transform="matrix(1,0,0,1,470.00000000000017,2627) translate(30.009999999999998 40.65)"/><use xlink:href="#ay" transform="matrix(1,0,0,1,470.00000000000017,2627) translate(80.91 40.65)"/><use xlink:href="#az" transform="matrix(1,0,0,1,470.00000000000017,2627) translate(36.01 62.25)"/><use xlink:href="#aA" transform="matrix(1,0,0,1,470.00000000000017,2627) translate(72.01 62.25)"/><use xlink:href="#aB" transform="matrix(1,0,0,1,470.00000000000017,2627) translate(144.86 62.25)"/><use xlink:href="#aC" transform="matrix(1,0,0,1,470.00000000000017,2627) translate(166.31 62.25)"/><use xlink:href="#aD" transform="matrix(1,0,0,1,470.00000000000017,2627) translate(36.01 83.85000000000001)"/><path class="lucid-link lucid-hotspot lucid-overlay-hotspot" d="M470 2633a6 6 0 0 1 6-6h352.14a6 6 0 0 1 6 6v108a6 6 0 0 1-6 6H476a6 6 0 0 1-6-6z" fill="none"/></a><path d="M1019.06 2589.63h-361a6 6 0 0 0-6 6v14.52" stroke="#3a414a" fill="none"/><path d="M1019.56 2590.13h-.52v-1h.52z" stroke="#3a414a" stroke-width=".05" fill="#3a414a"/><path d="M652.07 2624.92l-4.64-14.27h9.28z" stroke="#3a414a" fill="#3a414a"/><g><use xlink:href="#aE" transform="matrix(1,0,0,1,636.3249670150096,2564.300239402372) translate(0 14.222222222222223)"/><use xlink:href="#ar" transform="matrix(1,0,0,1,636.3249670150096,2564.300239402372) translate(53.33333333333334 14.222222222222223)"/><use xlink:href="#aF" transform="matrix(1,0,0,1,636.3249670150096,2564.300239402372) translate(104.19753086419755 14.222222222222223)"/></g><defs><path fill="#3a414a" d="M127-220V0H93v-220H8v-28h204v28h-85" id="aG"/><path fill="#3a414a" d="M141-36C126-15 110 5 73 4 37 3 15-17 15-53c-1-64 63-63 125-63 3-35-9-54-41-54-24 1-41 7-42 31l-33-3c5-37 33-52 76-52 45 0 72 20 72 64v82c-1 20 7 32 28 27v20c-31 9-61-2-59-35zM48-53c0 20 12 33 32 33 41-3 63-29 60-74-43 2-92-5-92 41" id="aH"/><path fill="#3a414a" d="M24 0v-261h32V0H24" id="aI"/><path fill="#3a414a" d="M143 0L79-87 56-68V0H24v-261h32v163l83-92h37l-77 82L181 0h-38" id="aJ"/><g id="a"><use transform="matrix(0.06172839506172839,0,0,0.06172839506172839,0,0)" xlink:href="#aG"/><use transform="matrix(0.06172839506172839,0,0,0.06172839506172839,11.049382716049381,0)" xlink:href="#aH"/><use transform="matrix(0.06172839506172839,0,0,0.06172839506172839,23.39506172839506,0)" xlink:href="#aI"/><use transform="matrix(0.06172839506172839,0,0,0.06172839506172839,28.2716049382716,0)" xlink:href="#aJ"/></g><path fill="#3a414a" d="M59-47c-2 24 18 29 38 22v24C64 9 27 4 27-40v-127H5v-23h24l9-43h21v43h35v23H59v120" id="aK"/><path fill="#3a414a" d="M100-194c62-1 85 37 85 99 1 63-27 99-86 99S16-35 15-95c0-66 28-99 85-99zM99-20c44 1 53-31 53-75 0-43-8-75-51-75s-53 32-53 75 10 74 51 75" id="aL"/><g id="b"><use transform="matrix(0.06172839506172839,0,0,0.06172839506172839,0,0)" xlink:href="#aK"/><use transform="matrix(0.06172839506172839,0,0,0.06172839506172839,6.172839506172839,0)" xlink:href="#aL"/></g><path fill="#3a414a" d="M117-194c89-4 53 116 60 194h-32v-121c0-31-8-49-39-48C34-167 62-67 57 0H25l-1-190h30c1 10-1 24 2 32 11-22 29-35 61-36" id="aM"/><g id="c"><use transform="matrix(0.06172839506172839,0,0,0.06172839506172839,0,0)" xlink:href="#aH"/><use transform="matrix(0.06172839506172839,0,0,0.06172839506172839,12.345679012345679,0)" xlink:href="#aM"/></g><path fill="#3a414a" d="M24-231v-30h32v30H24zM24 0v-190h32V0H24" id="aN"/><path fill="#3a414a" d="M135-143c-3-34-86-38-87 0 15 53 115 12 119 90S17 21 10-45l28-5c4 36 97 45 98 0-10-56-113-15-118-90-4-57 82-63 122-42 12 7 21 19 24 35" id="aO"/><path fill="#3a414a" d="M100-194c63 0 86 42 84 106H49c0 40 14 67 53 68 26 1 43-12 49-29l28 8c-11 28-37 45-77 45C44 4 14-33 15-96c1-61 26-98 85-98zm52 81c6-60-76-77-97-28-3 7-6 17-6 28h103" id="aP"/><path fill="#3a414a" d="M96-169c-40 0-48 33-48 73s9 75 48 75c24 0 41-14 43-38l32 2c-6 37-31 61-74 61-59 0-76-41-82-99-10-93 101-131 147-64 4 7 5 14 7 22l-32 3c-4-21-16-35-41-35" id="aQ"/><path fill="#3a414a" d="M84 4C-5 8 30-112 23-190h32v120c0 31 7 50 39 49 72-2 45-101 50-169h31l1 190h-30c-1-10 1-25-2-33-11 22-28 36-60 37" id="aR"/><path fill="#3a414a" d="M114-163C36-179 61-72 57 0H25l-1-190h30c1 12-1 29 2 39 6-27 23-49 58-41v29" id="aS"/><g id="d"><use transform="matrix(0.06172839506172839,0,0,0.06172839506172839,0,0)" xlink:href="#aN"/><use transform="matrix(0.06172839506172839,0,0,0.06172839506172839,4.876543209876543,0)" xlink:href="#aM"/><use transform="matrix(0.06172839506172839,0,0,0.06172839506172839,17.22222222222222,0)" xlink:href="#aO"/><use transform="matrix(0.06172839506172839,0,0,0.06172839506172839,28.333333333333332,0)" xlink:href="#aP"/><use transform="matrix(0.06172839506172839,0,0,0.06172839506172839,40.67901234567901,0)" xlink:href="#aQ"/><use transform="matrix(0.06172839506172839,0,0,0.06172839506172839,51.79012345679013,0)" xlink:href="#aR"/><use transform="matrix(0.06172839506172839,0,0,0.06172839506172839,64.13580246913581,0)" xlink:href="#aS"/><use transform="matrix(0.06172839506172839,0,0,0.06172839506172839,71.4814814814815,0)" xlink:href="#aP"/></g><path fill="#3a414a" d="M233-177c-1 41-23 64-60 70L243 0h-38l-65-103H63V0H30v-248c88 3 205-21 203 71zM63-129c60-2 137 13 137-47 0-61-80-42-137-45v92" id="aT"/><path fill="#3a414a" d="M177-190C167-65 218 103 67 71c-23-6-38-20-44-43l32-5c15 47 100 32 89-28v-30C133-14 115 1 83 1 29 1 15-40 15-95c0-56 16-97 71-98 29-1 48 16 59 35 1-10 0-23 2-32h30zM94-22c36 0 50-32 50-73 0-42-14-75-50-75-39 0-46 34-46 75s6 73 46 73" id="aU"/><path fill="#3a414a" d="M179-190L93 31C79 59 56 82 12 73V49c39 6 53-20 64-50L1-190h34L92-34l54-156h33" id="aV"/><g id="e"><use transform="matrix(0.06172839506172839,0,0,0.06172839506172839,0,0)" xlink:href="#aT"/><use transform="matrix(0.06172839506172839,0,0,0.06172839506172839,15.987654320987653,0)" xlink:href="#aP"/><use transform="matrix(0.06172839506172839,0,0,0.06172839506172839,28.333333333333332,0)" xlink:href="#aU"/><use transform="matrix(0.06172839506172839,0,0,0.06172839506172839,40.67901234567901,0)" xlink:href="#aN"/><use transform="matrix(0.06172839506172839,0,0,0.06172839506172839,45.55555555555556,0)" xlink:href="#aO"/><use transform="matrix(0.06172839506172839,0,0,0.06172839506172839,56.66666666666667,0)" xlink:href="#aK"/><use transform="matrix(0.06172839506172839,0,0,0.06172839506172839,62.83950617283951,0)" xlink:href="#aS"/><use transform="matrix(0.06172839506172839,0,0,0.06172839506172839,70.18518518518519,0)" xlink:href="#aV"/></g><path fill="#3a414a" d="M197 0v-115H63V0H30v-248h33v105h134v-105h34V0h-34" id="aW"/><path fill="#3a414a" d="M30-248c87 1 191-15 191 75 0 78-77 80-158 76V0H30v-248zm33 125c57 0 124 11 124-50 0-59-68-47-124-48v98" id="aX"/><g id="f"><use transform="matrix(0.06172839506172839,0,0,0.06172839506172839,0,0)" xlink:href="#aW"/><use transform="matrix(0.06172839506172839,0,0,0.06172839506172839,15.987654320987653,0)" xlink:href="#aG"/><use transform="matrix(0.06172839506172839,0,0,0.06172839506172839,29.50617283950617,0)" xlink:href="#aG"/><use transform="matrix(0.06172839506172839,0,0,0.06172839506172839,43.02469135802469,0)" xlink:href="#aX"/></g><path fill="#3a414a" d="M185-189c-5-48-123-54-124 2 14 75 158 14 163 119 3 78-121 87-175 55-17-10-28-26-33-46l33-7c5 56 141 63 141-1 0-78-155-14-162-118-5-82 145-84 179-34 5 7 8 16 11 25" id="aY"/><path fill="#3a414a" d="M108 0H70L1-190h34L89-25l56-165h34" id="aZ"/><g id="g"><use transform="matrix(0.06172839506172839,0,0,0.06172839506172839,0,0)" xlink:href="#aY"/><use transform="matrix(0.06172839506172839,0,0,0.06172839506172839,14.814814814814813,0)" xlink:href="#aP"/><use transform="matrix(0.06172839506172839,0,0,0.06172839506172839,27.160493827160494,0)" xlink:href="#aS"/><use transform="matrix(0.06172839506172839,0,0,0.06172839506172839,34.50617283950617,0)" xlink:href="#aZ"/><use transform="matrix(0.06172839506172839,0,0,0.06172839506172839,45.61728395061728,0)" xlink:href="#aP"/><use transform="matrix(0.06172839506172839,0,0,0.06172839506172839,57.962962962962955,0)" xlink:href="#aS"/></g><path fill="#3a414a" d="M101-234c-31-9-42 10-38 44h38v23H63V0H32v-167H5v-23h27c-7-52 17-82 69-68v24" id="ba"/><path fill="#3a414a" d="M210-169c-67 3-38 105-44 169h-31v-121c0-29-5-50-35-48C34-165 62-65 56 0H25l-1-190h30c1 10-1 24 2 32 10-44 99-50 107 0 11-21 27-35 58-36 85-2 47 119 55 194h-31v-121c0-29-5-49-35-48" id="bb"/><g id="h"><use transform="matrix(0.06172839506172839,0,0,0.06172839506172839,0,0)" xlink:href="#ba"/><use transform="matrix(0.06172839506172839,0,0,0.06172839506172839,6.172839506172839,0)" xlink:href="#aS"/><use transform="matrix(0.06172839506172839,0,0,0.06172839506172839,13.518518518518519,0)" xlink:href="#aL"/><use transform="matrix(0.06172839506172839,0,0,0.06172839506172839,25.864197530864196,0)" xlink:href="#bb"/></g><path fill="#3a414a" d="M30-248c118-7 216 8 213 122C240-48 200 0 122 0H30v-248zM63-27c89 8 146-16 146-99s-60-101-146-95v194" id="bc"/><path fill="#3a414a" d="M115-194c55 1 70 41 70 98S169 2 115 4C84 4 66-9 55-30l1 105H24l-1-265h31l2 30c10-21 28-34 59-34zm-8 174c40 0 45-34 45-75s-6-73-45-74c-42 0-51 32-51 76 0 43 10 73 51 73" id="bd"/><g id="i"><use transform="matrix(0.06172839506172839,0,0,0.06172839506172839,0,0)" xlink:href="#bc"/><use transform="matrix(0.06172839506172839,0,0,0.06172839506172839,15.987654320987653,0)" xlink:href="#aP"/><use transform="matrix(0.06172839506172839,0,0,0.06172839506172839,28.333333333333332,0)" xlink:href="#bd"/><use transform="matrix(0.06172839506172839,0,0,0.06172839506172839,40.67901234567901,0)" xlink:href="#aI"/><use transform="matrix(0.06172839506172839,0,0,0.06172839506172839,45.55555555555556,0)" xlink:href="#aL"/><use transform="matrix(0.06172839506172839,0,0,0.06172839506172839,57.901234567901234,0)" xlink:href="#aV"/><use transform="matrix(0.06172839506172839,0,0,0.06172839506172839,69.01234567901234,0)" xlink:href="#bb"/><use transform="matrix(0.06172839506172839,0,0,0.06172839506172839,87.46913580246913,0)" xlink:href="#aP"/><use transform="matrix(0.06172839506172839,0,0,0.06172839506172839,99.81481481481481,0)" xlink:href="#aM"/><use transform="matrix(0.06172839506172839,0,0,0.06172839506172839,112.1604938271605,0)" xlink:href="#aK"/></g><path fill="#3a414a" d="M85-194c31 0 48 13 60 33l-1-100h32l1 261h-30c-2-10 0-23-3-31C134-8 116 4 85 4 32 4 16-35 15-94c0-66 23-100 70-100zm9 24c-40 0-46 34-46 75 0 40 6 74 45 74 42 0 51-32 51-76 0-42-9-74-50-73" id="be"/><g id="j"><use transform="matrix(0.06172839506172839,0,0,0.06172839506172839,0,0)" xlink:href="#aQ"/><use transform="matrix(0.06172839506172839,0,0,0.06172839506172839,11.11111111111111,0)" xlink:href="#aS"/><use transform="matrix(0.06172839506172839,0,0,0.06172839506172839,18.45679012345679,0)" xlink:href="#aP"/><use transform="matrix(0.06172839506172839,0,0,0.06172839506172839,30.80246913580247,0)" xlink:href="#aH"/><use transform="matrix(0.06172839506172839,0,0,0.06172839506172839,43.148148148148145,0)" xlink:href="#aK"/><use transform="matrix(0.06172839506172839,0,0,0.06172839506172839,49.32098765432099,0)" xlink:href="#aP"/><use transform="matrix(0.06172839506172839,0,0,0.06172839506172839,61.666666666666664,0)" xlink:href="#be"/></g><path fill="#3a414a" d="M115-194c53 0 69 39 70 98 0 66-23 100-70 100C84 3 66-7 56-30L54 0H23l1-261h32v101c10-23 28-34 59-34zm-8 174c40 0 45-34 45-75 0-40-5-75-45-74-42 0-51 32-51 76 0 43 10 73 51 73" id="bf"/><g id="k"><use transform="matrix(0.06172839506172839,0,0,0.06172839506172839,0,0)" xlink:href="#bf"/><use transform="matrix(0.06172839506172839,0,0,0.06172839506172839,12.345679012345679,0)" xlink:href="#aV"/></g><path fill="#3a414a" d="M140-251c81 0 123 46 123 126C263-46 219 4 140 4 59 4 17-45 17-125s42-126 123-126zm0 227c63 0 89-41 89-101s-29-99-89-99c-61 0-89 39-89 99S79-25 140-24" id="bg"/><path fill="#3a414a" d="M205 0l-28-72H64L36 0H1l101-248h38L239 0h-34zm-38-99l-47-123c-12 45-31 82-46 123h93" id="bh"/><g id="l"><use transform="matrix(0.06172839506172839,0,0,0.06172839506172839,0,0)" xlink:href="#bg"/><use transform="matrix(0.06172839506172839,0,0,0.06172839506172839,17.28395061728395,0)" xlink:href="#bh"/><use transform="matrix(0.06172839506172839,0,0,0.06172839506172839,32.09876543209876,0)" xlink:href="#bc"/><use transform="matrix(0.06172839506172839,0,0,0.06172839506172839,48.08641975308641,0)" xlink:href="#aX"/></g><g id="m"><use transform="matrix(0.08024691358024688,0,0,0.08024691358024688,0,0)" xlink:href="#aR"/><use transform="matrix(0.08024691358024688,0,0,0.08024691358024688,16.049382716049376,0)" xlink:href="#aO"/><use transform="matrix(0.08024691358024688,0,0,0.08024691358024688,30.493827160493815,0)" xlink:href="#aP"/></g><g id="n"><use transform="matrix(0.08024691358024688,0,0,0.08024691358024688,0,0)" xlink:href="#bd"/><use transform="matrix(0.08024691358024688,0,0,0.08024691358024688,16.049382716049376,0)" xlink:href="#aI"/><use transform="matrix(0.08024691358024688,0,0,0.08024691358024688,22.38888888888888,0)" xlink:href="#aR"/><use transform="matrix(0.08024691358024688,0,0,0.08024691358024688,38.43827160493825,0)" xlink:href="#aU"/><use transform="matrix(0.08024691358024688,0,0,0.08024691358024688,54.48765432098763,0)" xlink:href="#aN"/><use transform="matrix(0.08024691358024688,0,0,0.08024691358024688,60.82716049382714,0)" xlink:href="#aM"/></g><g id="o"><use transform="matrix(0.08024691358024688,0,0,0.08024691358024688,0,0)" xlink:href="#aS"/><use transform="matrix(0.08024691358024688,0,0,0.08024691358024688,9.54938271604938,0)" xlink:href="#aP"/><use transform="matrix(0.08024691358024688,0,0,0.08024691358024688,25.598765432098755,0)" xlink:href="#aU"/><use transform="matrix(0.08024691358024688,0,0,0.08024691358024688,41.64814814814813,0)" xlink:href="#aN"/><use transform="matrix(0.08024691358024688,0,0,0.08024691358024688,47.98765432098764,0)" xlink:href="#aO"/><use transform="matrix(0.08024691358024688,0,0,0.08024691358024688,62.43209876543207,0)" xlink:href="#aK"/><use transform="matrix(0.08024691358024688,0,0,0.08024691358024688,70.45679012345676,0)" xlink:href="#aS"/><use transform="matrix(0.08024691358024688,0,0,0.08024691358024688,80.00617283950614,0)" xlink:href="#aV"/></g><path fill="#333" d="M175 0L67-191c6 58 2 128 3 191H24v-248h59L193-55c-6-58-2-129-3-193h46V0h-61" id="bi"/><path fill="#333" d="M110-194c64 0 96 36 96 99 0 64-35 99-97 99-61 0-95-36-95-99 0-62 34-99 96-99zm-1 164c35 0 45-28 45-65 0-40-10-65-43-65-34 0-45 26-45 65 0 36 10 65 43 65" id="bj"/><g id="p"><use transform="matrix(0.04938271604938272,0,0,0.04938271604938272,0,0)" xlink:href="#bi"/><use transform="matrix(0.04938271604938272,0,0,0.04938271604938272,12.790123456790125,0)" xlink:href="#bj"/></g><path fill="#333" d="M146-102V0H94v-102L6-248h54l60 105 60-105h54" id="bk"/><path fill="#333" d="M185-48c-13 30-37 53-82 52C43 2 14-33 14-96s30-98 90-98c62 0 83 45 84 108H66c0 31 8 55 39 56 18 0 30-7 34-22zm-45-69c5-46-57-63-70-21-2 6-4 13-4 21h74" id="bl"/><path fill="#333" d="M137-138c1-29-70-34-71-4 15 46 118 7 119 86 1 83-164 76-172 9l43-7c4 19 20 25 44 25 33 8 57-30 24-41C81-84 22-81 20-136c-2-80 154-74 161-7" id="bm"/><g id="q"><use transform="matrix(0.04938271604938272,0,0,0.04938271604938272,0,0)" xlink:href="#bk"/><use transform="matrix(0.04938271604938272,0,0,0.04938271604938272,10.864197530864198,0)" xlink:href="#bl"/><use transform="matrix(0.04938271604938272,0,0,0.04938271604938272,20.74074074074074,0)" xlink:href="#bm"/></g><g id="r"><use transform="matrix(0.06172839506172839,0,0,0.06172839506172839,0,0)" xlink:href="#aT"/><use transform="matrix(0.06172839506172839,0,0,0.06172839506172839,15.987654320987653,0)" xlink:href="#aP"/><use transform="matrix(0.06172839506172839,0,0,0.06172839506172839,28.333333333333332,0)" xlink:href="#aU"/><use transform="matrix(0.06172839506172839,0,0,0.06172839506172839,40.67901234567901,0)" xlink:href="#aN"/><use transform="matrix(0.06172839506172839,0,0,0.06172839506172839,45.55555555555556,0)" xlink:href="#aO"/><use transform="matrix(0.06172839506172839,0,0,0.06172839506172839,56.66666666666667,0)" xlink:href="#aK"/><use transform="matrix(0.06172839506172839,0,0,0.06172839506172839,62.83950617283951,0)" xlink:href="#aS"/><use transform="matrix(0.06172839506172839,0,0,0.06172839506172839,70.18518518518519,0)" xlink:href="#aV"/></g><g id="s"><use transform="matrix(0.06172839506172839,0,0,0.06172839506172839,0,0)" xlink:href="#aI"/><use transform="matrix(0.06172839506172839,0,0,0.06172839506172839,4.876543209876543,0)" xlink:href="#aN"/><use transform="matrix(0.06172839506172839,0,0,0.06172839506172839,9.753086419753085,0)" xlink:href="#aO"/><use transform="matrix(0.06172839506172839,0,0,0.06172839506172839,20.864197530864196,0)" xlink:href="#aK"/><use transform="matrix(0.06172839506172839,0,0,0.06172839506172839,27.037037037037035,0)" xlink:href="#aP"/><use transform="matrix(0.06172839506172839,0,0,0.06172839506172839,39.382716049382715,0)" xlink:href="#aM"/><use transform="matrix(0.06172839506172839,0,0,0.06172839506172839,51.72839506172839,0)" xlink:href="#aO"/></g><g id="t"><use transform="matrix(0.06172839506172839,0,0,0.06172839506172839,0,0)" xlink:href="#aH"/><use transform="matrix(0.06172839506172839,0,0,0.06172839506172839,12.345679012345679,0)" xlink:href="#aM"/><use transform="matrix(0.06172839506172839,0,0,0.06172839506172839,24.691358024691358,0)" xlink:href="#be"/></g><path fill="#3a414a" d="M206 0h-36l-40-164L89 0H53L-1-190h32L70-26l43-164h34l41 164 42-164h31" id="bn"/><g id="u"><use transform="matrix(0.06172839506172839,0,0,0.06172839506172839,0,0)" xlink:href="#ba"/><use transform="matrix(0.06172839506172839,0,0,0.06172839506172839,6.172839506172839,0)" xlink:href="#aL"/><use transform="matrix(0.06172839506172839,0,0,0.06172839506172839,18.51851851851852,0)" xlink:href="#aS"/><use transform="matrix(0.06172839506172839,0,0,0.06172839506172839,25.864197530864196,0)" xlink:href="#bn"/><use transform="matrix(0.06172839506172839,0,0,0.06172839506172839,41.85185185185185,0)" xlink:href="#aH"/><use transform="matrix(0.06172839506172839,0,0,0.06172839506172839,54.197530864197525,0)" xlink:href="#aS"/><use transform="matrix(0.06172839506172839,0,0,0.06172839506172839,61.5432098765432,0)" xlink:href="#be"/></g><path fill="#3a414a" d="M106-169C34-169 62-67 57 0H25v-261h32l-1 103c12-21 28-36 61-36 89 0 53 116 60 194h-32v-121c2-32-8-49-39-48" id="bo"/><g id="v"><use transform="matrix(0.06172839506172839,0,0,0.06172839506172839,0,0)" xlink:href="#aP"/><use transform="matrix(0.06172839506172839,0,0,0.06172839506172839,12.345679012345679,0)" xlink:href="#aH"/><use transform="matrix(0.06172839506172839,0,0,0.06172839506172839,24.691358024691358,0)" xlink:href="#aQ"/><use transform="matrix(0.06172839506172839,0,0,0.06172839506172839,35.80246913580247,0)" xlink:href="#bo"/></g><path fill="#3a414a" d="M145-31C134-9 116 4 85 4 32 4 16-35 15-94c0-59 17-99 70-100 32-1 48 14 60 33 0-11-1-24 2-32h30l-1 268h-32zM93-21c41 0 51-33 51-76s-8-73-50-73c-40 0-46 35-46 75s5 74 45 74" id="bp"/><g id="w"><use transform="matrix(0.06172839506172839,0,0,0.06172839506172839,0,0)" xlink:href="#aS"/><use transform="matrix(0.06172839506172839,0,0,0.06172839506172839,7.345679012345679,0)" xlink:href="#aP"/><use transform="matrix(0.06172839506172839,0,0,0.06172839506172839,19.691358024691358,0)" xlink:href="#bp"/><use transform="matrix(0.06172839506172839,0,0,0.06172839506172839,32.03703703703704,0)" xlink:href="#aR"/><use transform="matrix(0.06172839506172839,0,0,0.06172839506172839,44.382716049382715,0)" xlink:href="#aP"/><use transform="matrix(0.06172839506172839,0,0,0.06172839506172839,56.72839506172839,0)" xlink:href="#aO"/><use transform="matrix(0.06172839506172839,0,0,0.06172839506172839,67.8395061728395,0)" xlink:href="#aK"/></g><g id="x"><use transform="matrix(0.06172839506172839,0,0,0.06172839506172839,0,0)" xlink:href="#bh"/><use transform="matrix(0.06172839506172839,0,0,0.06172839506172839,14.814814814814813,0)" xlink:href="#bd"/><use transform="matrix(0.06172839506172839,0,0,0.06172839506172839,27.160493827160494,0)" xlink:href="#bd"/></g><g id="y"><use transform="matrix(0.06172839506172839,0,0,0.06172839506172839,0,0)" xlink:href="#ba"/><use transform="matrix(0.06172839506172839,0,0,0.06172839506172839,6.172839506172839,0)" xlink:href="#aR"/><use transform="matrix(0.06172839506172839,0,0,0.06172839506172839,18.51851851851852,0)" xlink:href="#aM"/><use transform="matrix(0.06172839506172839,0,0,0.06172839506172839,30.864197530864196,0)" xlink:href="#aQ"/><use transform="matrix(0.06172839506172839,0,0,0.06172839506172839,41.9753086419753,0)" xlink:href="#aK"/><use transform="matrix(0.06172839506172839,0,0,0.06172839506172839,48.148148148148145,0)" xlink:href="#aN"/><use transform="matrix(0.06172839506172839,0,0,0.06172839506172839,53.02469135802469,0)" xlink:href="#aL"/><use transform="matrix(0.06172839506172839,0,0,0.06172839506172839,65.37037037037037,0)" xlink:href="#aM"/></g><g id="z"><use transform="matrix(0.06172839506172839,0,0,0.06172839506172839,0,0)" xlink:href="#aK"/><use transform="matrix(0.06172839506172839,0,0,0.06172839506172839,6.172839506172839,0)" xlink:href="#bo"/><use transform="matrix(0.06172839506172839,0,0,0.06172839506172839,18.51851851851852,0)" xlink:href="#aH"/><use transform="matrix(0.06172839506172839,0,0,0.06172839506172839,30.864197530864196,0)" xlink:href="#aK"/></g><g id="A"><use transform="matrix(0.06172839506172839,0,0,0.06172839506172839,0,0)" xlink:href="#aO"/><use transform="matrix(0.06172839506172839,0,0,0.06172839506172839,11.11111111111111,0)" xlink:href="#aP"/><use transform="matrix(0.06172839506172839,0,0,0.06172839506172839,23.45679012345679,0)" xlink:href="#aS"/><use transform="matrix(0.06172839506172839,0,0,0.06172839506172839,30.80246913580247,0)" xlink:href="#aZ"/><use transform="matrix(0.06172839506172839,0,0,0.06172839506172839,41.91358024691358,0)" xlink:href="#aP"/></g><use transform="matrix(0.06172839506172839,0,0,0.06172839506172839,0,0)" xlink:href="#aH" id="B"/><g id="C"><use transform="matrix(0.06172839506172839,0,0,0.06172839506172839,0,0)" xlink:href="#aO"/><use transform="matrix(0.06172839506172839,0,0,0.06172839506172839,11.11111111111111,0)" xlink:href="#aN"/><use transform="matrix(0.06172839506172839,0,0,0.06172839506172839,15.987654320987653,0)" xlink:href="#aM"/><use transform="matrix(0.06172839506172839,0,0,0.06172839506172839,28.333333333333332,0)" xlink:href="#aU"/><use transform="matrix(0.06172839506172839,0,0,0.06172839506172839,40.67901234567901,0)" xlink:href="#aI"/><use transform="matrix(0.06172839506172839,0,0,0.06172839506172839,45.55555555555556,0)" xlink:href="#aP"/></g><g id="D"><use transform="matrix(0.06172839506172839,0,0,0.06172839506172839,0,0)" xlink:href="#aS"/><use transform="matrix(0.06172839506172839,0,0,0.06172839506172839,7.345679012345679,0)" xlink:href="#aP"/><use transform="matrix(0.06172839506172839,0,0,0.06172839506172839,19.691358024691358,0)" xlink:href="#bp"/><use transform="matrix(0.06172839506172839,0,0,0.06172839506172839,32.03703703703704,0)" xlink:href="#aR"/><use transform="matrix(0.06172839506172839,0,0,0.06172839506172839,44.382716049382715,0)" xlink:href="#aP"/><use transform="matrix(0.06172839506172839,0,0,0.06172839506172839,56.72839506172839,0)" xlink:href="#aO"/><use transform="matrix(0.06172839506172839,0,0,0.06172839506172839,67.8395061728395,0)" xlink:href="#aK"/></g><path fill="#3a414a" d="M33 0v-248h34V0H33" id="bq"/><path fill="#3a414a" d="M9 0v-24l116-142H16v-24h144v24L44-24h123V0H9" id="br"/><g id="E"><use transform="matrix(0.06172839506172839,0,0,0.06172839506172839,0,0)" xlink:href="#bq"/><use transform="matrix(0.06172839506172839,0,0,0.06172839506172839,6.172839506172839,0)" xlink:href="#aM"/><use transform="matrix(0.06172839506172839,0,0,0.06172839506172839,18.51851851851852,0)" xlink:href="#aN"/><use transform="matrix(0.06172839506172839,0,0,0.06172839506172839,23.395061728395063,0)" xlink:href="#aK"/><use transform="matrix(0.06172839506172839,0,0,0.06172839506172839,29.567901234567902,0)" xlink:href="#aN"/><use transform="matrix(0.06172839506172839,0,0,0.06172839506172839,34.44444444444444,0)" xlink:href="#aH"/><use transform="matrix(0.06172839506172839,0,0,0.06172839506172839,46.79012345679012,0)" xlink:href="#aI"/><use transform="matrix(0.06172839506172839,0,0,0.06172839506172839,51.666666666666664,0)" xlink:href="#aN"/><use transform="matrix(0.06172839506172839,0,0,0.06172839506172839,56.54320987654321,0)" xlink:href="#br"/><use transform="matrix(0.06172839506172839,0,0,0.06172839506172839,67.65432098765432,0)" xlink:href="#aP"/></g><g id="F"><use transform="matrix(0.06172839506172839,0,0,0.06172839506172839,0,0)" xlink:href="#aN"/><use transform="matrix(0.06172839506172839,0,0,0.06172839506172839,4.876543209876543,0)" xlink:href="#ba"/></g><g id="G"><use transform="matrix(0.06172839506172839,0,0,0.06172839506172839,0,0)" xlink:href="#aM"/><use transform="matrix(0.06172839506172839,0,0,0.06172839506172839,12.345679012345679,0)" xlink:href="#aL"/><use transform="matrix(0.06172839506172839,0,0,0.06172839506172839,24.691358024691358,0)" xlink:href="#aK"/></g><g id="H"><use transform="matrix(0.06172839506172839,0,0,0.06172839506172839,0,0)" xlink:href="#ba"/><use transform="matrix(0.06172839506172839,0,0,0.06172839506172839,6.172839506172839,0)" xlink:href="#aS"/><use transform="matrix(0.06172839506172839,0,0,0.06172839506172839,13.518518518518519,0)" xlink:href="#aL"/><use transform="matrix(0.06172839506172839,0,0,0.06172839506172839,25.864197530864196,0)" xlink:href="#bb"/></g><path fill="#3a414a" d="M33 0v-38h34V0H33" id="bs"/><g id="I"><use transform="matrix(0.06172839506172839,0,0,0.06172839506172839,0,0)" xlink:href="#bb"/><use transform="matrix(0.06172839506172839,0,0,0.06172839506172839,18.456790123456788,0)" xlink:href="#aP"/><use transform="matrix(0.06172839506172839,0,0,0.06172839506172839,30.80246913580247,0)" xlink:href="#bb"/><use transform="matrix(0.06172839506172839,0,0,0.06172839506172839,49.25925925925925,0)" xlink:href="#aL"/><use transform="matrix(0.06172839506172839,0,0,0.06172839506172839,61.60493827160493,0)" xlink:href="#aS"/><use transform="matrix(0.06172839506172839,0,0,0.06172839506172839,68.9506172839506,0)" xlink:href="#aV"/><use transform="matrix(0.06172839506172839,0,0,0.06172839506172839,78.39506172839505,0)" xlink:href="#bs"/></g><g id="J"><use transform="matrix(0.06172839506172839,0,0,0.06172839506172839,0,0)" xlink:href="#aY"/><use transform="matrix(0.06172839506172839,0,0,0.06172839506172839,14.814814814814813,0)" xlink:href="#aP"/><use transform="matrix(0.06172839506172839,0,0,0.06172839506172839,27.160493827160494,0)" xlink:href="#aM"/><use transform="matrix(0.06172839506172839,0,0,0.06172839506172839,39.50617283950617,0)" xlink:href="#be"/></g><g id="K"><use transform="matrix(0.06172839506172839,0,0,0.06172839506172839,0,0)" xlink:href="#aP"/><use transform="matrix(0.06172839506172839,0,0,0.06172839506172839,12.345679012345679,0)" xlink:href="#aH"/><use transform="matrix(0.06172839506172839,0,0,0.06172839506172839,24.691358024691358,0)" xlink:href="#aQ"/><use transform="matrix(0.06172839506172839,0,0,0.06172839506172839,35.80246913580247,0)" xlink:href="#bo"/></g><g id="L"><use transform="matrix(0.06172839506172839,0,0,0.06172839506172839,0,0)" xlink:href="#aS"/><use transform="matrix(0.06172839506172839,0,0,0.06172839506172839,7.345679012345679,0)" xlink:href="#aP"/><use transform="matrix(0.06172839506172839,0,0,0.06172839506172839,19.691358024691358,0)" xlink:href="#bp"/><use transform="matrix(0.06172839506172839,0,0,0.06172839506172839,32.03703703703704,0)" xlink:href="#aR"/><use transform="matrix(0.06172839506172839,0,0,0.06172839506172839,44.382716049382715,0)" xlink:href="#aP"/><use transform="matrix(0.06172839506172839,0,0,0.06172839506172839,56.72839506172839,0)" xlink:href="#aO"/><use transform="matrix(0.06172839506172839,0,0,0.06172839506172839,67.8395061728395,0)" xlink:href="#aK"/><use transform="matrix(0.06172839506172839,0,0,0.06172839506172839,74.01234567901234,0)" xlink:href="#aO"/></g><g id="M"><use transform="matrix(0.06172839506172839,0,0,0.06172839506172839,0,0)" xlink:href="#ba"/><use transform="matrix(0.06172839506172839,0,0,0.06172839506172839,6.172839506172839,0)" xlink:href="#aR"/><use transform="matrix(0.06172839506172839,0,0,0.06172839506172839,18.51851851851852,0)" xlink:href="#aM"/><use transform="matrix(0.06172839506172839,0,0,0.06172839506172839,30.864197530864196,0)" xlink:href="#aQ"/><use transform="matrix(0.06172839506172839,0,0,0.06172839506172839,41.9753086419753,0)" xlink:href="#aK"/><use transform="matrix(0.06172839506172839,0,0,0.06172839506172839,48.148148148148145,0)" xlink:href="#aN"/><use transform="matrix(0.06172839506172839,0,0,0.06172839506172839,53.02469135802469,0)" xlink:href="#aL"/><use transform="matrix(0.06172839506172839,0,0,0.06172839506172839,65.37037037037037,0)" xlink:href="#aM"/></g><g id="N"><use transform="matrix(0.06172839506172839,0,0,0.06172839506172839,0,0)" xlink:href="#aT"/><use transform="matrix(0.06172839506172839,0,0,0.06172839506172839,15.987654320987653,0)" xlink:href="#aP"/><use transform="matrix(0.06172839506172839,0,0,0.06172839506172839,28.333333333333332,0)" xlink:href="#bp"/><use transform="matrix(0.06172839506172839,0,0,0.06172839506172839,40.67901234567901,0)" xlink:href="#aR"/><use transform="matrix(0.06172839506172839,0,0,0.06172839506172839,53.02469135802469,0)" xlink:href="#aP"/><use transform="matrix(0.06172839506172839,0,0,0.06172839506172839,65.37037037037037,0)" xlink:href="#aO"/><use transform="matrix(0.06172839506172839,0,0,0.06172839506172839,76.48148148148148,0)" xlink:href="#aK"/></g><g id="O"><use transform="matrix(0.06172839506172839,0,0,0.06172839506172839,0,0)" xlink:href="#aS"/><use transform="matrix(0.06172839506172839,0,0,0.06172839506172839,7.345679012345679,0)" xlink:href="#aL"/><use transform="matrix(0.06172839506172839,0,0,0.06172839506172839,19.691358024691358,0)" xlink:href="#aR"/><use transform="matrix(0.06172839506172839,0,0,0.06172839506172839,32.03703703703704,0)" xlink:href="#aK"/><use transform="matrix(0.06172839506172839,0,0,0.06172839506172839,38.20987654320988,0)" xlink:href="#aP"/><use transform="matrix(0.06172839506172839,0,0,0.06172839506172839,50.55555555555556,0)" xlink:href="#be"/></g><g id="P"><use transform="matrix(0.06172839506172839,0,0,0.06172839506172839,0,0)" xlink:href="#aL"/><use transform="matrix(0.06172839506172839,0,0,0.06172839506172839,12.345679012345679,0)" xlink:href="#aK"/><use transform="matrix(0.06172839506172839,0,0,0.06172839506172839,18.51851851851852,0)" xlink:href="#bo"/><use transform="matrix(0.06172839506172839,0,0,0.06172839506172839,30.864197530864196,0)" xlink:href="#aP"/><use transform="matrix(0.06172839506172839,0,0,0.06172839506172839,43.20987654320987,0)" xlink:href="#aS"/></g><g id="Q"><use transform="matrix(0.06172839506172839,0,0,0.06172839506172839,0,0)" xlink:href="#ba"/><use transform="matrix(0.06172839506172839,0,0,0.06172839506172839,6.172839506172839,0)" xlink:href="#aR"/><use transform="matrix(0.06172839506172839,0,0,0.06172839506172839,18.51851851851852,0)" xlink:href="#aM"/><use transform="matrix(0.06172839506172839,0,0,0.06172839506172839,30.864197530864196,0)" xlink:href="#aQ"/><use transform="matrix(0.06172839506172839,0,0,0.06172839506172839,41.9753086419753,0)" xlink:href="#aK"/><use transform="matrix(0.06172839506172839,0,0,0.06172839506172839,48.148148148148145,0)" xlink:href="#aN"/><use transform="matrix(0.06172839506172839,0,0,0.06172839506172839,53.02469135802469,0)" xlink:href="#aL"/><use transform="matrix(0.06172839506172839,0,0,0.06172839506172839,65.37037037037037,0)" xlink:href="#aM"/><use transform="matrix(0.06172839506172839,0,0,0.06172839506172839,77.71604938271605,0)" xlink:href="#aO"/></g><g id="R"><use transform="matrix(0.06172839506172839,0,0,0.06172839506172839,0,0)" xlink:href="#ba"/><use transform="matrix(0.06172839506172839,0,0,0.06172839506172839,6.172839506172839,0)" xlink:href="#aL"/><use transform="matrix(0.06172839506172839,0,0,0.06172839506172839,18.51851851851852,0)" xlink:href="#aS"/></g><g id="S"><use transform="matrix(0.06172839506172839,0,0,0.06172839506172839,0,0)" xlink:href="#be"/><use transform="matrix(0.06172839506172839,0,0,0.06172839506172839,12.345679012345679,0)" xlink:href="#aN"/><use transform="matrix(0.06172839506172839,0,0,0.06172839506172839,17.22222222222222,0)" xlink:href="#ba"/><use transform="matrix(0.06172839506172839,0,0,0.06172839506172839,22.962962962962962,0)" xlink:href="#ba"/><use transform="matrix(0.06172839506172839,0,0,0.06172839506172839,29.1358024691358,0)" xlink:href="#aP"/><use transform="matrix(0.06172839506172839,0,0,0.06172839506172839,41.48148148148148,0)" xlink:href="#aS"/><use transform="matrix(0.06172839506172839,0,0,0.06172839506172839,48.82716049382716,0)" xlink:href="#aP"/><use transform="matrix(0.06172839506172839,0,0,0.06172839506172839,61.172839506172835,0)" xlink:href="#aM"/><use transform="matrix(0.06172839506172839,0,0,0.06172839506172839,73.51851851851852,0)" xlink:href="#aK"/></g><g id="T"><use transform="matrix(0.06172839506172839,0,0,0.06172839506172839,0,0)" xlink:href="#bh"/><use transform="matrix(0.06172839506172839,0,0,0.06172839506172839,14.814814814814813,0)" xlink:href="#aX"/><use transform="matrix(0.06172839506172839,0,0,0.06172839506172839,29.629629629629626,0)" xlink:href="#bq"/><use transform="matrix(0.06172839506172839,0,0,0.06172839506172839,35.80246913580247,0)" xlink:href="#aO"/></g><g id="U"><use transform="matrix(0.06172839506172839,0,0,0.06172839506172839,0,0)" xlink:href="#aS"/><use transform="matrix(0.06172839506172839,0,0,0.06172839506172839,7.345679012345679,0)" xlink:href="#aP"/><use transform="matrix(0.06172839506172839,0,0,0.06172839506172839,19.691358024691358,0)" xlink:href="#bp"/><use transform="matrix(0.06172839506172839,0,0,0.06172839506172839,32.03703703703704,0)" xlink:href="#aR"/><use transform="matrix(0.06172839506172839,0,0,0.06172839506172839,44.382716049382715,0)" xlink:href="#aP"/><use transform="matrix(0.06172839506172839,0,0,0.06172839506172839,56.72839506172839,0)" xlink:href="#aO"/><use transform="matrix(0.06172839506172839,0,0,0.06172839506172839,67.8395061728395,0)" xlink:href="#aK"/><use transform="matrix(0.06172839506172839,0,0,0.06172839506172839,74.01234567901234,0)" xlink:href="#aP"/><use transform="matrix(0.06172839506172839,0,0,0.06172839506172839,86.35802469135803,0)" xlink:href="#be"/></g><g id="V"><use transform="matrix(0.06172839506172834,0,0,0.06172839506172834,0,0)" xlink:href="#aT"/><use transform="matrix(0.06172839506172834,0,0,0.06172839506172834,15.987654320987641,0)" xlink:href="#aP"/><use transform="matrix(0.06172839506172834,0,0,0.06172839506172834,28.333333333333307,0)" xlink:href="#aU"/><use transform="matrix(0.06172839506172834,0,0,0.06172839506172834,40.67901234567898,0)" xlink:href="#aN"/><use transform="matrix(0.06172839506172834,0,0,0.06172839506172834,45.555555555555515,0)" xlink:href="#aO"/><use transform="matrix(0.06172839506172834,0,0,0.06172839506172834,56.666666666666615,0)" xlink:href="#aK"/><use transform="matrix(0.06172839506172834,0,0,0.06172839506172834,62.83950617283945,0)" xlink:href="#aS"/><use transform="matrix(0.06172839506172834,0,0,0.06172839506172834,70.18518518518512,0)" xlink:href="#aV"/></g><path fill="#3a414a" d="M16-82v-28h88v28H16" id="bt"/><use transform="matrix(0.06172839506172834,0,0,0.06172839506172834,0,0)" xlink:href="#bt" id="X"/><path fill="#3a414a" d="M33-154v-36h34v36H33zM33 0v-36h34V0H33" id="bu"/><g id="Y"><use transform="matrix(0.06172839506172834,0,0,0.06172839506172834,0,0)" xlink:href="#aQ"/><use transform="matrix(0.06172839506172834,0,0,0.06172839506172834,11.111111111111102,0)" xlink:href="#aL"/><use transform="matrix(0.06172839506172834,0,0,0.06172839506172834,23.45679012345677,0)" xlink:href="#aM"/><use transform="matrix(0.06172839506172834,0,0,0.06172839506172834,35.80246913580244,0)" xlink:href="#ba"/><use transform="matrix(0.06172839506172834,0,0,0.06172839506172834,41.975308641975275,0)" xlink:href="#aN"/><use transform="matrix(0.06172839506172834,0,0,0.06172839506172834,46.85185185185181,0)" xlink:href="#aU"/><use transform="matrix(0.06172839506172834,0,0,0.06172839506172834,59.19753086419748,0)" xlink:href="#bu"/></g><path fill="#3a414a" d="M80-196l47-18 7 23-49 13 32 44-20 13-27-46-27 45-21-12 33-44-49-13 8-23 47 19-2-53h23" id="bv"/><path fill="#3a414a" d="M212-179c-10-28-35-45-73-45-59 0-87 40-87 99 0 60 29 101 89 101 43 0 62-24 78-52l27 14C228-24 195 4 139 4 59 4 22-46 18-125c-6-104 99-153 187-111 19 9 31 26 39 46" id="bw"/><g id="Z"><use transform="matrix(0.06172839506172834,0,0,0.06172839506172834,0,0)" xlink:href="#bv"/><use transform="matrix(0.06172839506172834,0,0,0.06172839506172834,8.641975308641968,0)" xlink:href="#aQ"/><use transform="matrix(0.06172839506172834,0,0,0.06172839506172834,19.753086419753068,0)" xlink:href="#aL"/><use transform="matrix(0.06172839506172834,0,0,0.06172839506172834,32.09876543209874,0)" xlink:href="#aM"/><use transform="matrix(0.06172839506172834,0,0,0.06172839506172834,44.44444444444441,0)" xlink:href="#ba"/><use transform="matrix(0.06172839506172834,0,0,0.06172839506172834,50.61728395061724,0)" xlink:href="#aN"/><use transform="matrix(0.06172839506172834,0,0,0.06172839506172834,55.49382716049378,0)" xlink:href="#aU"/><use transform="matrix(0.06172839506172834,0,0,0.06172839506172834,67.83950617283945,0)" xlink:href="#aR"/><use transform="matrix(0.06172839506172834,0,0,0.06172839506172834,80.18518518518512,0)" xlink:href="#aS"/><use transform="matrix(0.06172839506172834,0,0,0.06172839506172834,87.53086419753079,0)" xlink:href="#aH"/><use transform="matrix(0.06172839506172834,0,0,0.06172839506172834,99.87654320987646,0)" xlink:href="#aK"/><use transform="matrix(0.06172839506172834,0,0,0.06172839506172834,106.0493827160493,0)" xlink:href="#aN"/><use transform="matrix(0.06172839506172834,0,0,0.06172839506172834,110.92592592592584,0)" xlink:href="#aL"/><use transform="matrix(0.06172839506172834,0,0,0.06172839506172834,123.27160493827151,0)" xlink:href="#aM"/><use transform="matrix(0.06172839506172834,0,0,0.06172839506172834,135.61728395061718,0)" xlink:href="#bs"/><use transform="matrix(0.06172839506172834,0,0,0.06172839506172834,141.79012345679,0)" xlink:href="#bw"/><use transform="matrix(0.06172839506172834,0,0,0.06172839506172834,157.77777777777766,0)" xlink:href="#aL"/><use transform="matrix(0.06172839506172834,0,0,0.06172839506172834,170.12345679012333,0)" xlink:href="#aM"/><use transform="matrix(0.06172839506172834,0,0,0.06172839506172834,182.469135802469,0)" xlink:href="#ba"/><use transform="matrix(0.06172839506172834,0,0,0.06172839506172834,188.64197530864183,0)" xlink:href="#aN"/><use transform="matrix(0.06172839506172834,0,0,0.06172839506172834,193.51851851851836,0)" xlink:href="#aU"/><use transform="matrix(0.06172839506172834,0,0,0.06172839506172834,205.86419753086403,0)" xlink:href="#aR"/><use transform="matrix(0.06172839506172834,0,0,0.06172839506172834,218.2098765432097,0)" xlink:href="#aS"/><use transform="matrix(0.06172839506172834,0,0,0.06172839506172834,225.55555555555537,0)" xlink:href="#aH"/><use transform="matrix(0.06172839506172834,0,0,0.06172839506172834,237.90123456790104,0)" xlink:href="#aK"/><use transform="matrix(0.06172839506172834,0,0,0.06172839506172834,244.07407407407388,0)" xlink:href="#aN"/><use transform="matrix(0.06172839506172834,0,0,0.06172839506172834,248.9506172839504,0)" xlink:href="#aL"/><use transform="matrix(0.06172839506172834,0,0,0.06172839506172834,261.2962962962961,0)" xlink:href="#aM"/></g><g id="aa"><use transform="matrix(0.06172839506172834,0,0,0.06172839506172834,0,0)" xlink:href="#aH"/><use transform="matrix(0.06172839506172834,0,0,0.06172839506172834,12.345679012345668,0)" xlink:href="#bd"/><use transform="matrix(0.06172839506172834,0,0,0.06172839506172834,24.691358024691336,0)" xlink:href="#bd"/><use transform="matrix(0.06172839506172834,0,0,0.06172839506172834,37.037037037037,0)" xlink:href="#bu"/></g><g id="ab"><use transform="matrix(0.06172839506172834,0,0,0.06172839506172834,0,0)" xlink:href="#bv"/><use transform="matrix(0.06172839506172834,0,0,0.06172839506172834,8.641975308641968,0)" xlink:href="#bo"/><use transform="matrix(0.06172839506172834,0,0,0.06172839506172834,20.987654320987637,0)" xlink:href="#aH"/><use transform="matrix(0.06172839506172834,0,0,0.06172839506172834,33.33333333333331,0)" xlink:href="#aM"/><use transform="matrix(0.06172839506172834,0,0,0.06172839506172834,45.67901234567898,0)" xlink:href="#be"/><use transform="matrix(0.06172839506172834,0,0,0.06172839506172834,58.02469135802465,0)" xlink:href="#aI"/><use transform="matrix(0.06172839506172834,0,0,0.06172839506172834,62.901234567901184,0)" xlink:href="#aP"/><use transform="matrix(0.06172839506172834,0,0,0.06172839506172834,75.24691358024685,0)" xlink:href="#aS"/><use transform="matrix(0.06172839506172834,0,0,0.06172839506172834,82.59259259259252,0)" xlink:href="#aO"/><use transform="matrix(0.06172839506172834,0,0,0.06172839506172834,93.70370370370362,0)" xlink:href="#bs"/><use transform="matrix(0.06172839506172834,0,0,0.06172839506172834,99.87654320987646,0)" xlink:href="#bh"/><use transform="matrix(0.06172839506172834,0,0,0.06172839506172834,114.69135802469125,0)" xlink:href="#bd"/><use transform="matrix(0.06172839506172834,0,0,0.06172839506172834,127.03703703703692,0)" xlink:href="#bd"/></g><g id="ac"><use transform="matrix(0.06172839506172834,0,0,0.06172839506172834,0,0)" xlink:href="#aO"/><use transform="matrix(0.06172839506172834,0,0,0.06172839506172834,11.111111111111102,0)" xlink:href="#aP"/><use transform="matrix(0.06172839506172834,0,0,0.06172839506172834,23.45679012345677,0)" xlink:href="#aS"/><use transform="matrix(0.06172839506172834,0,0,0.06172839506172834,30.802469135802443,0)" xlink:href="#aZ"/><use transform="matrix(0.06172839506172834,0,0,0.06172839506172834,41.91358024691355,0)" xlink:href="#aP"/><use transform="matrix(0.06172839506172834,0,0,0.06172839506172834,54.25925925925922,0)" xlink:href="#aS"/><use transform="matrix(0.06172839506172834,0,0,0.06172839506172834,61.60493827160489,0)" xlink:href="#bu"/></g><g id="ad"><use transform="matrix(0.06172839506172834,0,0,0.06172839506172834,0,0)" xlink:href="#bv"/><use transform="matrix(0.06172839506172834,0,0,0.06172839506172834,8.641975308641968,0)" xlink:href="#bo"/><use transform="matrix(0.06172839506172834,0,0,0.06172839506172834,20.987654320987637,0)" xlink:href="#aK"/><use transform="matrix(0.06172839506172834,0,0,0.06172839506172834,27.160493827160472,0)" xlink:href="#aK"/><use transform="matrix(0.06172839506172834,0,0,0.06172839506172834,33.33333333333331,0)" xlink:href="#bd"/><use transform="matrix(0.06172839506172834,0,0,0.06172839506172834,45.67901234567898,0)" xlink:href="#bs"/><use transform="matrix(0.06172839506172834,0,0,0.06172839506172834,51.85185185185181,0)" xlink:href="#aY"/><use transform="matrix(0.06172839506172834,0,0,0.06172839506172834,66.66666666666661,0)" xlink:href="#aP"/><use transform="matrix(0.06172839506172834,0,0,0.06172839506172834,79.01234567901228,0)" xlink:href="#aS"/><use transform="matrix(0.06172839506172834,0,0,0.06172839506172834,86.35802469135795,0)" xlink:href="#aZ"/><use transform="matrix(0.06172839506172834,0,0,0.06172839506172834,97.46913580246905,0)" xlink:href="#aP"/><use transform="matrix(0.06172839506172834,0,0,0.06172839506172834,109.81481481481472,0)" xlink:href="#aS"/></g><path fill="#3a414a" d="M118-107v75H92v-75H18v-26h74v-75h26v75h74v26h-74" id="bx"/><use transform="matrix(0.06172839506172834,0,0,0.06172839506172834,0,0)" xlink:href="#bx" id="ae"/><path fill="#3a414a" d="M30 0v-248h33v221h125V0H30" id="by"/><path fill="#3a414a" d="M87 75C49 33 22-17 22-94c0-76 28-126 65-167h31c-38 41-64 92-64 168S80 34 118 75H87" id="bz"/><path fill="#3a414a" d="M33-261c38 41 65 92 65 168S71 34 33 75H2C39 34 66-17 66-93S39-220 2-261h31" id="bA"/><g id="af"><use transform="matrix(0.06172839506172834,0,0,0.06172839506172834,0,0)" xlink:href="#by"/><use transform="matrix(0.06172839506172834,0,0,0.06172839506172834,12.345679012345668,0)" xlink:href="#aN"/><use transform="matrix(0.06172839506172834,0,0,0.06172839506172834,17.222222222222207,0)" xlink:href="#aO"/><use transform="matrix(0.06172839506172834,0,0,0.06172839506172834,28.333333333333307,0)" xlink:href="#aK"/><use transform="matrix(0.06172839506172834,0,0,0.06172839506172834,34.50617283950614,0)" xlink:href="#aP"/><use transform="matrix(0.06172839506172834,0,0,0.06172839506172834,46.85185185185181,0)" xlink:href="#aM"/><use transform="matrix(0.06172839506172834,0,0,0.06172839506172834,59.19753086419748,0)" xlink:href="#bh"/><use transform="matrix(0.06172839506172834,0,0,0.06172839506172834,74.01234567901228,0)" xlink:href="#aM"/><use transform="matrix(0.06172839506172834,0,0,0.06172839506172834,86.35802469135795,0)" xlink:href="#be"/><use transform="matrix(0.06172839506172834,0,0,0.06172839506172834,98.70370370370362,0)" xlink:href="#aY"/><use transform="matrix(0.06172839506172834,0,0,0.06172839506172834,113.51851851851842,0)" xlink:href="#aP"/><use transform="matrix(0.06172839506172834,0,0,0.06172839506172834,125.86419753086409,0)" xlink:href="#aS"/><use transform="matrix(0.06172839506172834,0,0,0.06172839506172834,133.20987654320976,0)" xlink:href="#aZ"/><use transform="matrix(0.06172839506172834,0,0,0.06172839506172834,144.32098765432087,0)" xlink:href="#aP"/><use transform="matrix(0.06172839506172834,0,0,0.06172839506172834,156.66666666666654,0)" xlink:href="#bz"/><use transform="matrix(0.06172839506172834,0,0,0.06172839506172834,164.0123456790122,0)" xlink:href="#bA"/></g><g id="ag"><use transform="matrix(0.06172839506172834,0,0,0.06172839506172834,0,0)" xlink:href="#aP"/><use transform="matrix(0.06172839506172834,0,0,0.06172839506172834,12.345679012345668,0)" xlink:href="#aS"/><use transform="matrix(0.06172839506172834,0,0,0.06172839506172834,19.69135802469134,0)" xlink:href="#aS"/><use transform="matrix(0.06172839506172834,0,0,0.06172839506172834,27.037037037037013,0)" xlink:href="#aL"/><use transform="matrix(0.06172839506172834,0,0,0.06172839506172834,39.38271604938268,0)" xlink:href="#aS"/></g><g id="ah"><use transform="matrix(0.06172839506172834,0,0,0.06172839506172834,0,0)" xlink:href="#bs"/><use transform="matrix(0.06172839506172834,0,0,0.06172839506172834,6.172839506172834,0)" xlink:href="#bs"/><use transform="matrix(0.06172839506172834,0,0,0.06172839506172834,12.345679012345668,0)" xlink:href="#bs"/></g><g id="ai"><use transform="matrix(0.06172839506172834,0,0,0.06172839506172834,0,0)" xlink:href="#bh"/><use transform="matrix(0.06172839506172834,0,0,0.06172839506172834,14.814814814814802,0)" xlink:href="#bd"/><use transform="matrix(0.06172839506172834,0,0,0.06172839506172834,27.160493827160472,0)" xlink:href="#bd"/></g><g id="aj"><use transform="matrix(0.06172839506172834,0,0,0.06172839506172834,0,0)" xlink:href="#bw"/><use transform="matrix(0.06172839506172834,0,0,0.06172839506172834,15.987654320987641,0)" xlink:href="#aL"/><use transform="matrix(0.06172839506172834,0,0,0.06172839506172834,28.333333333333307,0)" xlink:href="#aM"/><use transform="matrix(0.06172839506172834,0,0,0.06172839506172834,40.67901234567898,0)" xlink:href="#ba"/><use transform="matrix(0.06172839506172834,0,0,0.06172839506172834,46.85185185185181,0)" xlink:href="#aN"/><use transform="matrix(0.06172839506172834,0,0,0.06172839506172834,51.72839506172835,0)" xlink:href="#aU"/><use transform="matrix(0.06172839506172834,0,0,0.06172839506172834,64.07407407407402,0)" xlink:href="#bu"/></g><g id="ak"><use transform="matrix(0.06172839506172834,0,0,0.06172839506172834,0,0)" xlink:href="#bv"/><use transform="matrix(0.06172839506172834,0,0,0.06172839506172834,8.641975308641968,0)" xlink:href="#aQ"/><use transform="matrix(0.06172839506172834,0,0,0.06172839506172834,19.753086419753068,0)" xlink:href="#aL"/><use transform="matrix(0.06172839506172834,0,0,0.06172839506172834,32.09876543209874,0)" xlink:href="#aM"/><use transform="matrix(0.06172839506172834,0,0,0.06172839506172834,44.44444444444441,0)" xlink:href="#ba"/><use transform="matrix(0.06172839506172834,0,0,0.06172839506172834,50.61728395061724,0)" xlink:href="#aN"/><use transform="matrix(0.06172839506172834,0,0,0.06172839506172834,55.49382716049378,0)" xlink:href="#aU"/><use transform="matrix(0.06172839506172834,0,0,0.06172839506172834,67.83950617283945,0)" xlink:href="#aR"/><use transform="matrix(0.06172839506172834,0,0,0.06172839506172834,80.18518518518512,0)" xlink:href="#aS"/><use transform="matrix(0.06172839506172834,0,0,0.06172839506172834,87.53086419753079,0)" xlink:href="#aH"/><use transform="matrix(0.06172839506172834,0,0,0.06172839506172834,99.87654320987646,0)" xlink:href="#aK"/><use transform="matrix(0.06172839506172834,0,0,0.06172839506172834,106.0493827160493,0)" xlink:href="#aN"/><use transform="matrix(0.06172839506172834,0,0,0.06172839506172834,110.92592592592584,0)" xlink:href="#aL"/><use transform="matrix(0.06172839506172834,0,0,0.06172839506172834,123.27160493827151,0)" xlink:href="#aM"/><use transform="matrix(0.06172839506172834,0,0,0.06172839506172834,135.61728395061718,0)" xlink:href="#bs"/><use transform="matrix(0.06172839506172834,0,0,0.06172839506172834,141.79012345679,0)" xlink:href="#bw"/><use transform="matrix(0.06172839506172834,0,0,0.06172839506172834,157.77777777777766,0)" xlink:href="#aL"/><use transform="matrix(0.06172839506172834,0,0,0.06172839506172834,170.12345679012333,0)" xlink:href="#aM"/><use transform="matrix(0.06172839506172834,0,0,0.06172839506172834,182.469135802469,0)" xlink:href="#ba"/><use transform="matrix(0.06172839506172834,0,0,0.06172839506172834,188.64197530864183,0)" xlink:href="#aN"/><use transform="matrix(0.06172839506172834,0,0,0.06172839506172834,193.51851851851836,0)" xlink:href="#aU"/><use transform="matrix(0.06172839506172834,0,0,0.06172839506172834,205.86419753086403,0)" xlink:href="#aR"/><use transform="matrix(0.06172839506172834,0,0,0.06172839506172834,218.2098765432097,0)" xlink:href="#aS"/><use transform="matrix(0.06172839506172834,0,0,0.06172839506172834,225.55555555555537,0)" xlink:href="#aH"/><use transform="matrix(0.06172839506172834,0,0,0.06172839506172834,237.90123456790104,0)" xlink:href="#aK"/><use transform="matrix(0.06172839506172834,0,0,0.06172839506172834,244.07407407407388,0)" xlink:href="#aN"/><use transform="matrix(0.06172839506172834,0,0,0.06172839506172834,248.9506172839504,0)" xlink:href="#aL"/><use transform="matrix(0.06172839506172834,0,0,0.06172839506172834,261.2962962962961,0)" xlink:href="#aM"/></g><g id="al"><use transform="matrix(0.06172839506172834,0,0,0.06172839506172834,0,0)" xlink:href="#aY"/><use transform="matrix(0.06172839506172834,0,0,0.06172839506172834,14.814814814814802,0)" xlink:href="#aP"/><use transform="matrix(0.06172839506172834,0,0,0.06172839506172834,27.160493827160472,0)" xlink:href="#aS"/><use transform="matrix(0.06172839506172834,0,0,0.06172839506172834,34.50617283950614,0)" xlink:href="#aZ"/><use transform="matrix(0.06172839506172834,0,0,0.06172839506172834,45.61728395061724,0)" xlink:href="#aP"/><use transform="matrix(0.06172839506172834,0,0,0.06172839506172834,57.96296296296291,0)" xlink:href="#aW"/><use transform="matrix(0.06172839506172834,0,0,0.06172839506172834,73.95061728395055,0)" xlink:href="#aG"/><use transform="matrix(0.06172839506172834,0,0,0.06172839506172834,87.46913580246905,0)" xlink:href="#aG"/><use transform="matrix(0.06172839506172834,0,0,0.06172839506172834,100.98765432098756,0)" xlink:href="#aX"/><use transform="matrix(0.06172839506172834,0,0,0.06172839506172834,115.80246913580237,0)" xlink:href="#bz"/><use transform="matrix(0.06172839506172834,0,0,0.06172839506172834,123.14814814814804,0)" xlink:href="#bA"/><use transform="matrix(0.06172839506172834,0,0,0.06172839506172834,130.4938271604937,0)" xlink:href="#bu"/></g><path fill="#3a414a" d="M266 0h-40l-56-210L115 0H75L2-248h35L96-30l15-64 43-154h32l59 218 59-218h35" id="bB"/><path fill="#3a414a" d="M68-38c1 34 0 65-14 84H32c9-13 17-26 17-46H33v-38h35" id="bC"/><g id="am"><use transform="matrix(0.06172839506172834,0,0,0.06172839506172834,0,0)" xlink:href="#bz"/><use transform="matrix(0.06172839506172834,0,0,0.06172839506172834,7.3456790123456726,0)" xlink:href="#bo"/><use transform="matrix(0.06172839506172834,0,0,0.06172839506172834,19.69135802469134,0)" xlink:href="#aK"/><use transform="matrix(0.06172839506172834,0,0,0.06172839506172834,25.864197530864175,0)" xlink:href="#aK"/><use transform="matrix(0.06172839506172834,0,0,0.06172839506172834,32.03703703703701,0)" xlink:href="#bd"/><use transform="matrix(0.06172839506172834,0,0,0.06172839506172834,44.38271604938268,0)" xlink:href="#bs"/><use transform="matrix(0.06172839506172834,0,0,0.06172839506172834,50.555555555555515,0)" xlink:href="#aT"/><use transform="matrix(0.06172839506172834,0,0,0.06172839506172834,66.54320987654316,0)" xlink:href="#aP"/><use transform="matrix(0.06172839506172834,0,0,0.06172839506172834,78.88888888888883,0)" xlink:href="#aO"/><use transform="matrix(0.06172839506172834,0,0,0.06172839506172834,89.99999999999993,0)" xlink:href="#bd"/><use transform="matrix(0.06172839506172834,0,0,0.06172839506172834,102.3456790123456,0)" xlink:href="#aL"/><use transform="matrix(0.06172839506172834,0,0,0.06172839506172834,114.69135802469127,0)" xlink:href="#aM"/><use transform="matrix(0.06172839506172834,0,0,0.06172839506172834,127.03703703703692,0)" xlink:href="#aO"/><use transform="matrix(0.06172839506172834,0,0,0.06172839506172834,138.14814814814804,0)" xlink:href="#aP"/><use transform="matrix(0.06172839506172834,0,0,0.06172839506172834,150.4938271604937,0)" xlink:href="#bB"/><use transform="matrix(0.06172839506172834,0,0,0.06172839506172834,170.98765432098753,0)" xlink:href="#aS"/><use transform="matrix(0.06172839506172834,0,0,0.06172839506172834,178.3333333333332,0)" xlink:href="#aN"/><use transform="matrix(0.06172839506172834,0,0,0.06172839506172834,183.20987654320973,0)" xlink:href="#aK"/><use transform="matrix(0.06172839506172834,0,0,0.06172839506172834,189.38271604938257,0)" xlink:href="#aP"/><use transform="matrix(0.06172839506172834,0,0,0.06172839506172834,201.72839506172824,0)" xlink:href="#aS"/><use transform="matrix(0.06172839506172834,0,0,0.06172839506172834,207.83950617283935,0)" xlink:href="#bC"/></g><g id="an"><use transform="matrix(0.06172839506172834,0,0,0.06172839506172834,0,0)" xlink:href="#bv"/><use transform="matrix(0.06172839506172834,0,0,0.06172839506172834,8.641975308641968,0)" xlink:href="#bo"/><use transform="matrix(0.06172839506172834,0,0,0.06172839506172834,20.987654320987637,0)" xlink:href="#aK"/><use transform="matrix(0.06172839506172834,0,0,0.06172839506172834,27.160493827160472,0)" xlink:href="#aK"/><use transform="matrix(0.06172839506172834,0,0,0.06172839506172834,33.33333333333331,0)" xlink:href="#bd"/><use transform="matrix(0.06172839506172834,0,0,0.06172839506172834,45.67901234567898,0)" xlink:href="#bs"/><use transform="matrix(0.06172839506172834,0,0,0.06172839506172834,51.85185185185181,0)" xlink:href="#aT"/><use transform="matrix(0.06172839506172834,0,0,0.06172839506172834,67.83950617283945,0)" xlink:href="#aP"/><use transform="matrix(0.06172839506172834,0,0,0.06172839506172834,80.18518518518512,0)" xlink:href="#bp"/><use transform="matrix(0.06172839506172834,0,0,0.06172839506172834,92.53086419753079,0)" xlink:href="#aR"/><use transform="matrix(0.06172839506172834,0,0,0.06172839506172834,104.87654320987646,0)" xlink:href="#aP"/><use transform="matrix(0.06172839506172834,0,0,0.06172839506172834,117.22222222222213,0)" xlink:href="#aO"/><use transform="matrix(0.06172839506172834,0,0,0.06172839506172834,128.33333333333323,0)" xlink:href="#aK"/><use transform="matrix(0.06172839506172834,0,0,0.06172839506172834,134.50617283950606,0)" xlink:href="#bA"/></g><path fill="#333" d="M24 0v-248h195v40H76v63h132v40H76v65h150V0H24" id="bD"/><path fill="#333" d="M133-34C117-15 103 5 69 4 32 3 11-16 11-54c-1-60 55-63 116-61 1-26-3-47-28-47-18 1-26 9-28 27l-52-2c7-38 36-58 82-57s74 22 75 68l1 82c-1 14 12 18 25 15v27c-30 8-71 5-69-32zm-48 3c29 0 43-24 42-57-32 0-66-3-65 30 0 17 8 27 23 27" id="bE"/><path fill="#333" d="M190-63c-7 42-38 67-86 67-59 0-84-38-90-98-12-110 154-137 174-36l-49 2c-2-19-15-32-35-32-30 0-35 28-38 64-6 74 65 87 74 30" id="bF"/><path fill="#333" d="M114-157C55-157 80-60 75 0H25v-261h50l-1 109c12-26 28-41 61-42 86-1 58 113 63 194h-50c-7-57 23-157-34-157" id="bG"/><g id="ao"><use transform="matrix(0.04938271604938272,0,0,0.04938271604938272,0,0)" xlink:href="#bD"/><use transform="matrix(0.04938271604938272,0,0,0.04938271604938272,11.851851851851853,0)" xlink:href="#bE"/><use transform="matrix(0.04938271604938272,0,0,0.04938271604938272,21.7283950617284,0)" xlink:href="#bF"/><use transform="matrix(0.04938271604938272,0,0,0.04938271604938272,31.60493827160494,0)" xlink:href="#bG"/></g><path fill="#333" d="M135-150c-39-12-60 13-60 57V0H25l-1-190h47c2 13-1 29 3 40 6-28 27-53 61-41v41" id="bH"/><path fill="#333" d="M84 4C32 4 15-41 15-95c0-55 18-99 73-99 29 0 47 12 58 34l2-30h48l-1 265h-49V-32C136-9 114 4 84 4zm21-34c32 0 41-29 41-66 0-36-9-64-40-64-33 0-39 30-40 65 0 43 13 65 39 65" id="bI"/><path fill="#333" d="M85 4C-2 5 27-109 22-190h50c7 57-23 150 33 157 60-5 35-97 40-157h50l1 190h-47c-2-12 1-28-3-38-12 25-28 42-61 42" id="bJ"/><path fill="#333" d="M115-3C79 11 28 4 28-45v-112H4v-33h27l15-45h31v45h36v33H77v99c-1 23 16 31 38 25v30" id="bK"/><g id="ap"><use transform="matrix(0.04938271604938272,0,0,0.04938271604938272,0,0)" xlink:href="#bH"/><use transform="matrix(0.04938271604938272,0,0,0.04938271604938272,6.913580246913581,0)" xlink:href="#bl"/><use transform="matrix(0.04938271604938272,0,0,0.04938271604938272,16.790123456790127,0)" xlink:href="#bI"/><use transform="matrix(0.04938271604938272,0,0,0.04938271604938272,27.604938271604947,0)" xlink:href="#bJ"/><use transform="matrix(0.04938271604938272,0,0,0.04938271604938272,38.41975308641976,0)" xlink:href="#bl"/><use transform="matrix(0.04938271604938272,0,0,0.04938271604938272,48.296296296296305,0)" xlink:href="#bm"/><use transform="matrix(0.04938271604938272,0,0,0.04938271604938272,58.17283950617284,0)" xlink:href="#bK"/></g><path fill="#333" d="M231 0h-52l-39-155L100 0H48L-1-190h46L77-45c9-52 24-97 36-145h53l37 145 32-145h46" id="bL"/><path fill="#333" d="M147 0L96-86 75-71V0H25v-261h50v150l67-79h53l-66 74L201 0h-54" id="bM"/><g id="aq"><use transform="matrix(0.04938271604938272,0,0,0.04938271604938272,0,0)" xlink:href="#bi"/><use transform="matrix(0.04938271604938272,0,0,0.04938271604938272,12.790123456790125,0)" xlink:href="#bl"/><use transform="matrix(0.04938271604938272,0,0,0.04938271604938272,22.66666666666667,0)" xlink:href="#bK"/><use transform="matrix(0.04938271604938272,0,0,0.04938271604938272,28.54320987654322,0)" xlink:href="#bL"/><use transform="matrix(0.04938271604938272,0,0,0.04938271604938272,42.37037037037038,0)" xlink:href="#bj"/><use transform="matrix(0.04938271604938272,0,0,0.04938271604938272,53.1851851851852,0)" xlink:href="#bH"/><use transform="matrix(0.04938271604938272,0,0,0.04938271604938272,60.09876543209878,0)" xlink:href="#bM"/></g><path fill="#333" d="M186 0v-106H76V0H24v-248h52v99h110v-99h50V0h-50" id="bN"/><path fill="#333" d="M136-208V0H84v-208H4v-40h212v40h-80" id="bO"/><path fill="#333" d="M24-248c93 1 206-16 204 79-1 75-69 88-152 82V0H24v-248zm52 121c47 0 100 7 100-41 0-47-54-39-100-39v80" id="bP"/><g id="ar"><use transform="matrix(0.04938271604938272,0,0,0.04938271604938272,0,0)" xlink:href="#bN"/><use transform="matrix(0.04938271604938272,0,0,0.04938271604938272,12.790123456790125,0)" xlink:href="#bO"/><use transform="matrix(0.04938271604938272,0,0,0.04938271604938272,23.60493827160494,0)" xlink:href="#bO"/><use transform="matrix(0.04938271604938272,0,0,0.04938271604938272,34.41975308641975,0)" xlink:href="#bP"/></g><g id="as"><use transform="matrix(0.04938271604938272,0,0,0.04938271604938272,0,0)" xlink:href="#bH"/><use transform="matrix(0.04938271604938272,0,0,0.04938271604938272,6.913580246913581,0)" xlink:href="#bl"/><use transform="matrix(0.04938271604938272,0,0,0.04938271604938272,16.790123456790127,0)" xlink:href="#bI"/><use transform="matrix(0.04938271604938272,0,0,0.04938271604938272,27.604938271604947,0)" xlink:href="#bJ"/><use transform="matrix(0.04938271604938272,0,0,0.04938271604938272,38.41975308641976,0)" xlink:href="#bl"/><use transform="matrix(0.04938271604938272,0,0,0.04938271604938272,48.296296296296305,0)" xlink:href="#bm"/><use transform="matrix(0.04938271604938272,0,0,0.04938271604938272,58.17283950617284,0)" xlink:href="#bK"/></g><path fill="#333" d="M169-182c-1-43-94-46-97-3 18 66 151 10 154 114 3 95-165 93-204 36-6-8-10-19-12-30l50-8c3 46 112 56 116 5-17-69-150-10-154-114-4-87 153-88 188-35 5 8 8 18 10 28" id="bQ"/><path fill="#333" d="M25-224v-37h50v37H25zM25 0v-190h50V0H25" id="bR"/><path fill="#333" d="M135-194c53 0 70 44 70 98 0 56-19 98-73 100-31 1-45-17-59-34 3 33 2 69 2 105H25l-1-265h48c2 10 0 23 3 31 11-24 29-35 60-35zM114-30c33 0 39-31 40-66 0-38-9-64-40-64-56 0-55 130 0 130" id="bS"/><g id="at"><use transform="matrix(0.04938271604938272,0,0,0.04938271604938272,0,0)" xlink:href="#bQ"/><use transform="matrix(0.04938271604938272,0,0,0.04938271604938272,11.851851851851853,0)" xlink:href="#bM"/><use transform="matrix(0.04938271604938272,0,0,0.04938271604938272,21.7283950617284,0)" xlink:href="#bR"/><use transform="matrix(0.04938271604938272,0,0,0.04938271604938272,26.666666666666668,0)" xlink:href="#bS"/><use transform="matrix(0.04938271604938272,0,0,0.04938271604938272,37.48148148148149,0)" xlink:href="#bm"/></g><g id="au"><use transform="matrix(0.04938271604938272,0,0,0.04938271604938272,0,0)" xlink:href="#bi"/><use transform="matrix(0.04938271604938272,0,0,0.04938271604938272,12.790123456790125,0)" xlink:href="#bl"/><use transform="matrix(0.04938271604938272,0,0,0.04938271604938272,22.66666666666667,0)" xlink:href="#bK"/><use transform="matrix(0.04938271604938272,0,0,0.04938271604938272,28.54320987654322,0)" xlink:href="#bL"/><use transform="matrix(0.04938271604938272,0,0,0.04938271604938272,42.37037037037038,0)" xlink:href="#bj"/><use transform="matrix(0.04938271604938272,0,0,0.04938271604938272,53.1851851851852,0)" xlink:href="#bH"/><use transform="matrix(0.04938271604938272,0,0,0.04938271604938272,60.09876543209878,0)" xlink:href="#bM"/></g><path fill="#333" d="M25 0v-261h50V0H25" id="bT"/><path fill="#333" d="M123 10C108 53 80 86 19 72V37c35 8 53-11 59-39L3-190h52l48 148c12-52 28-100 44-148h51" id="bU"/><g id="av"><use transform="matrix(0.04938271604938272,0,0,0.04938271604938272,0,0)" xlink:href="#bT"/><use transform="matrix(0.04938271604938272,0,0,0.04938271604938272,4.938271604938272,0)" xlink:href="#bE"/><use transform="matrix(0.04938271604938272,0,0,0.04938271604938272,14.814814814814817,0)" xlink:href="#bU"/><use transform="matrix(0.04938271604938272,0,0,0.04938271604938272,24.69135802469136,0)" xlink:href="#bl"/><use transform="matrix(0.04938271604938272,0,0,0.04938271604938272,34.567901234567906,0)" xlink:href="#bH"/></g><path d="M177-190C167-65 218 103 67 71c-23-6-38-20-44-43l32-5c15 47 100 32 89-28v-30C133-14 115 1 83 1 29 1 15-40 15-95c0-56 16-97 71-98 29-1 48 16 59 35 1-10 0-23 2-32h30zM94-22c36 0 50-32 50-73 0-42-14-75-50-75-39 0-46 34-46 75s6 73 46 73" id="bV"/><path d="M100-194c62-1 85 37 85 99 1 63-27 99-86 99S16-35 15-95c0-66 28-99 85-99zM99-20c44 1 53-31 53-75 0-43-8-75-51-75s-53 32-53 75 10 74 51 75" id="bW"/><g id="aw"><use transform="matrix(0.05,0,0,0.05,0,0)" xlink:href="#bV"/><use transform="matrix(0.05,0,0,0.05,10,0)" xlink:href="#bW"/></g><path d="M101-234c-31-9-42 10-38 44h38v23H63V0H32v-167H5v-23h27c-7-52 17-82 69-68v24" id="bX"/><path d="M84 4C-5 8 30-112 23-190h32v120c0 31 7 50 39 49 72-2 45-101 50-169h31l1 190h-30c-1-10 1-25-2-33-11 22-28 36-60 37" id="bY"/><path d="M117-194c89-4 53 116 60 194h-32v-121c0-31-8-49-39-48C34-167 62-67 57 0H25l-1-190h30c1 10-1 24 2 32 11-22 29-35 61-36" id="bZ"/><path d="M96-169c-40 0-48 33-48 73s9 75 48 75c24 0 41-14 43-38l32 2c-6 37-31 61-74 61-59 0-76-41-82-99-10-93 101-131 147-64 4 7 5 14 7 22l-32 3c-4-21-16-35-41-35" id="ca"/><path d="M87 75C49 33 22-17 22-94c0-76 28-126 65-167h31c-38 41-64 92-64 168S80 34 118 75H87" id="cb"/><path d="M33-261c38 41 65 92 65 168S71 34 33 75H2C39 34 66-17 66-93S39-220 2-261h31" id="cc"/><g id="ax"><use transform="matrix(0.05,0,0,0.05,0,0)" xlink:href="#bX"/><use transform="matrix(0.05,0,0,0.05,5,0)" xlink:href="#bY"/><use transform="matrix(0.05,0,0,0.05,15,0)" xlink:href="#bZ"/><use transform="matrix(0.05,0,0,0.05,25,0)" xlink:href="#ca"/><use transform="matrix(0.05,0,0,0.05,34,0)" xlink:href="#cb"/><use transform="matrix(0.05,0,0,0.05,39.95,0)" xlink:href="#cc"/></g><path d="M39-94c74 12-11 154 75 146v23c-44 4-70-10-70-52C44-23 55-84 6-82v-22c81 4-7-162 84-157h24v23c-82-15-2 131-75 144" id="cd"/><use transform="matrix(0.05,0,0,0.05,0,0)" xlink:href="#cd" id="ay"/><path d="M135-143c-3-34-86-38-87 0 15 53 115 12 119 90S17 21 10-45l28-5c4 36 97 45 98 0-10-56-113-15-118-90-4-57 82-63 122-42 12 7 21 19 24 35" id="ce"/><path d="M100-194c63 0 86 42 84 106H49c0 40 14 67 53 68 26 1 43-12 49-29l28 8c-11 28-37 45-77 45C44 4 14-33 15-96c1-61 26-98 85-98zm52 81c6-60-76-77-97-28-3 7-6 17-6 28h103" id="cf"/><path d="M114-163C36-179 61-72 57 0H25l-1-190h30c1 12-1 29 2 39 6-27 23-49 58-41v29" id="cg"/><path d="M108 0H70L1-190h34L89-25l56-165h34" id="ch"/><path d="M30 0v-248h187v28H63v79h144v27H63v87h162V0H30" id="ci"/><g id="aA"><use transform="matrix(0.05,0,0,0.05,0,0)" xlink:href="#ce"/><use transform="matrix(0.05,0,0,0.05,9,0)" xlink:href="#cf"/><use transform="matrix(0.05,0,0,0.05,19,0)" xlink:href="#cg"/><use transform="matrix(0.05,0,0,0.05,24.95,0)" xlink:href="#ch"/><use transform="matrix(0.05,0,0,0.05,33.95,0)" xlink:href="#cf"/><use transform="matrix(0.05,0,0,0.05,43.95,0)" xlink:href="#ci"/><use transform="matrix(0.05,0,0,0.05,55.95,0)" xlink:href="#cg"/><use transform="matrix(0.05,0,0,0.05,61.900000000000006,0)" xlink:href="#cg"/></g><path d="M18-100v-36l175-74v27L42-118l151 64v27" id="cj"/><path d="M16-82v-28h88v28H16" id="ck"/><g id="aB"><use transform="matrix(0.05,0,0,0.05,0,0)" xlink:href="#cj"/><use transform="matrix(0.05,0,0,0.05,10.5,0)" xlink:href="#ck"/></g><path d="M24-231v-30h32v30H24zM24 0v-190h32V0H24" id="cl"/><path d="M59-47c-2 24 18 29 38 22v24C64 9 27 4 27-40v-127H5v-23h24l9-43h21v43h35v23H59v120" id="cm"/><path d="M179-190L93 31C79 59 56 82 12 73V49c39 6 53-20 64-50L1-190h34L92-34l54-156h33" id="cn"/><path d="M33 0v-38h34V0H33" id="co"/><path d="M185-189c-5-48-123-54-124 2 14 75 158 14 163 119 3 78-121 87-175 55-17-10-28-26-33-46l33-7c5 56 141 63 141-1 0-78-155-14-162-118-5-82 145-84 179-34 5 7 8 16 11 25" id="cp"/><path d="M24 0v-261h32V0H24" id="cq"/><g id="aC"><use transform="matrix(0.05,0,0,0.05,0,0)" xlink:href="#cg"/><use transform="matrix(0.05,0,0,0.05,5.95,0)" xlink:href="#cf"/><use transform="matrix(0.05,0,0,0.05,15.949999999999998,0)" xlink:href="#bV"/><use transform="matrix(0.05,0,0,0.05,25.950000000000003,0)" xlink:href="#cl"/><use transform="matrix(0.05,0,0,0.05,29.899999999999995,0)" xlink:href="#ce"/><use transform="matrix(0.05,0,0,0.05,38.9,0)" xlink:href="#cm"/><use transform="matrix(0.05,0,0,0.05,43.9,0)" xlink:href="#cg"/><use transform="matrix(0.05,0,0,0.05,49.85,0)" xlink:href="#cn"/><use transform="matrix(0.05,0,0,0.05,57.5,0)" xlink:href="#co"/><use transform="matrix(0.05,0,0,0.05,62.5,0)" xlink:href="#ce"/><use transform="matrix(0.05,0,0,0.05,71.5,0)" xlink:href="#cf"/><use transform="matrix(0.05,0,0,0.05,81.5,0)" xlink:href="#cg"/><use transform="matrix(0.05,0,0,0.05,87.45,0)" xlink:href="#ch"/><use transform="matrix(0.05,0,0,0.05,96.45,0)" xlink:href="#cf"/><use transform="matrix(0.05,0,0,0.05,106.45,0)" xlink:href="#cg"/><use transform="matrix(0.05,0,0,0.05,111.4,0)" xlink:href="#co"/><use transform="matrix(0.05,0,0,0.05,116.4,0)" xlink:href="#cp"/><use transform="matrix(0.05,0,0,0.05,128.4,0)" xlink:href="#cf"/><use transform="matrix(0.05,0,0,0.05,138.4,0)" xlink:href="#cg"/><use transform="matrix(0.05,0,0,0.05,144.35,0)" xlink:href="#ch"/><use transform="matrix(0.05,0,0,0.05,153.35,0)" xlink:href="#cf"/><use transform="matrix(0.05,0,0,0.05,163.35,0)" xlink:href="#cb"/><use transform="matrix(0.05,0,0,0.05,169.29999999999998,0)" xlink:href="#cq"/><use transform="matrix(0.05,0,0,0.05,173.24999999999997,0)" xlink:href="#bZ"/><use transform="matrix(0.05,0,0,0.05,183.24999999999997,0)" xlink:href="#cc"/></g><path d="M76-40C78 24 84 88 6 75V52C86 64 9-79 80-94c-40-6-34-59-34-106 1-29-11-41-40-38v-23c44-4 70 10 70 52 0 47-12 108 38 105v22c-26 1-39 14-38 42" id="cr"/><g id="aD"><use transform="matrix(0.05,0,0,0.05,0,0)" xlink:href="#cr"/><use transform="matrix(0.05,0,0,0.05,6,0)" xlink:href="#cb"/><use transform="matrix(0.05,0,0,0.05,11.95,0)" xlink:href="#cc"/></g><path fill="#333" d="M128 0H69L1-190h53L99-40l48-150h52" id="cs"/><g id="aE"><use transform="matrix(0.04938271604938272,0,0,0.04938271604938272,0,0)" xlink:href="#bQ"/><use transform="matrix(0.04938271604938272,0,0,0.04938271604938272,11.851851851851853,0)" xlink:href="#bl"/><use transform="matrix(0.04938271604938272,0,0,0.04938271604938272,21.7283950617284,0)" xlink:href="#bH"/><use transform="matrix(0.04938271604938272,0,0,0.04938271604938272,28.64197530864198,0)" xlink:href="#cs"/><use transform="matrix(0.04938271604938272,0,0,0.04938271604938272,38.518518518518526,0)" xlink:href="#bl"/></g><g id="aF"><use transform="matrix(0.04938271604938272,0,0,0.04938271604938272,0,0)" xlink:href="#bQ"/><use transform="matrix(0.04938271604938272,0,0,0.04938271604938272,11.851851851851853,0)" xlink:href="#bl"/><use transform="matrix(0.04938271604938272,0,0,0.04938271604938272,21.7283950617284,0)" xlink:href="#bH"/><use transform="matrix(0.04938271604938272,0,0,0.04938271604938272,28.64197530864198,0)" xlink:href="#cs"/><use transform="matrix(0.04938271604938272,0,0,0.04938271604938272,38.518518518518526,0)" xlink:href="#bl"/><use transform="matrix(0.04938271604938272,0,0,0.04938271604938272,48.39506172839507,0)" xlink:href="#bH"/></g></defs></g></svg>